<svg width="152" height="72" viewBox="0 0 152 72" fill="none" xmlns="http://www.w3.org/2000/svg">
<ellipse cx="57.1295" cy="30.3283" rx="30.2155" ry="30.3283" fill="#3EDDE8"/>
<path fill-rule="evenodd" clip-rule="evenodd" d="M44.8957 23.6851C47.446 20.9933 51.4509 18.2441 57.1214 18.2441C62.7918 18.2441 66.7967 20.9933 69.347 23.6851C70.6209 25.0297 71.5443 26.3711 72.1503 27.3772C72.4539 27.8812 72.6796 28.304 72.8312 28.605C72.907 28.7555 72.9644 28.8758 73.0039 28.9608C73.027 29.0106 73.0498 29.0606 73.0724 29.1107C73.3335 29.6907 73.0536 30.3728 72.4699 30.6256C71.8839 30.8793 71.2162 30.6032 70.9516 30.0221C70.9389 29.9943 70.9261 29.9665 70.9133 29.9387C70.8836 29.8749 70.8369 29.7769 70.7728 29.6496C70.6444 29.3947 70.4467 29.0236 70.1765 28.575C69.6348 27.6756 68.8088 26.4765 67.6756 25.2805C65.4118 22.8912 61.9723 20.5593 57.1214 20.5593C52.2704 20.5593 48.8309 22.8912 46.5671 25.2805C45.434 26.4765 44.608 27.6756 44.0663 28.575C43.796 29.0236 43.5983 29.3947 43.4699 29.6496C43.4058 29.7769 43.3591 29.8749 43.3295 29.9387C43.3147 29.9707 43.3041 29.994 43.2978 30.0081L43.2915 30.0224L43.2911 30.0232L43.2907 30.0242C43.039 30.6098 42.3587 30.8792 41.7738 30.626C41.1901 30.3732 40.9157 29.6935 41.1712 29.111C41.1784 29.0944 41.1857 29.0779 41.193 29.0614C41.2038 29.0371 41.2191 29.0034 41.2388 28.9608C41.2783 28.8758 41.3357 28.7555 41.4116 28.605C41.5631 28.304 41.7888 27.8812 42.0924 27.3772C42.6984 26.3711 43.6218 25.0297 44.8957 23.6851Z" fill="#070738"/>
<path fill-rule="evenodd" clip-rule="evenodd" d="M41.1296 21.9939C40.898 22.5652 40.2506 22.8455 39.6783 22.6045L34.0529 20.223C33.4839 19.9829 33.2249 19.324 33.4544 18.7573C33.6295 18.3259 34.0405 18.0605 34.4798 18.0605C34.6231 18.0605 34.7672 18.0887 34.9053 18.1468L40.531 20.5283C41.1 20.7685 41.3591 21.4272 41.1296 21.9939Z" fill="#070738"/>
<path fill-rule="evenodd" clip-rule="evenodd" d="M80.804 18.7579C81.0327 19.3244 80.7736 19.9826 80.2049 20.2227L80.2023 20.2238L74.5807 22.6036C74.0076 22.847 73.3594 22.5635 73.1282 21.9936C72.8986 21.4268 73.1583 20.7683 73.7273 20.5282L79.3516 18.1472L79.3527 18.1467C79.4909 18.0887 79.635 18.0605 79.7782 18.0605C80.2174 18.0605 80.6285 18.3258 80.8036 18.7571L80.804 18.7579Z" fill="#070738"/>
<path fill-rule="evenodd" clip-rule="evenodd" d="M51.1249 13.8098C50.5595 14.0392 49.9057 13.7788 49.6661 13.2089L47.2939 7.56251C47.0529 6.98841 47.332 6.33681 47.9024 6.10478L47.9029 6.10456C48.0413 6.04848 48.185 6.02148 48.3275 6.02148C48.7617 6.02148 49.1804 6.27496 49.3616 6.70565L51.7338 12.3519C51.975 12.9264 51.6953 13.577 51.1258 13.8094L51.1249 13.8098Z" fill="#070738"/>
<path fill-rule="evenodd" clip-rule="evenodd" d="M66.9564 7.56255L64.5844 13.2088C64.3448 13.7787 63.6902 14.0392 63.1251 13.8097C62.5547 13.5777 62.2755 12.926 62.5166 12.3519L64.8887 6.70536C65.0699 6.27465 65.4886 6.02148 65.9227 6.02148C66.0652 6.02148 66.209 6.04848 66.3473 6.10455L66.3479 6.10476C66.9183 6.33676 67.1975 6.98841 66.9564 7.56255Z" fill="#070738"/>
<path d="M42.6738 12.3714L46.8782 16.5919C47.3183 17.0337 47.318 17.7497 46.8779 18.1914C46.8286 18.2408 46.7759 18.2847 46.7206 18.323L46.7243 18.3267H46.7151C46.2764 18.6268 45.6738 18.5819 45.2845 18.1911L41.08 13.9705C40.64 13.5288 40.64 12.8131 41.0801 12.3713C41.3 12.1505 41.5892 12.04 41.8769 12.04C42.1646 12.04 42.4538 12.1506 42.6738 12.3714Z" fill="#070738"/>
<path d="M71.5801 12.3714L67.3757 16.5919C66.9356 17.0337 66.9359 17.7497 67.376 18.1914C67.4253 18.2408 67.478 18.2847 67.5333 18.323L67.5296 18.3267H67.5388C67.9775 18.6268 68.5801 18.5819 68.9694 18.1911L73.1739 13.9705C73.6139 13.5288 73.6139 12.8131 73.1738 12.3713C72.9539 12.1505 72.6647 12.04 72.377 12.04C72.0893 12.04 71.8001 12.1506 71.5801 12.3714Z" fill="#070738"/>
<path d="M58.0995 14.7751L58.0995 14.7758C58.0986 15.4201 57.5433 15.8734 56.9462 15.8734C56.3491 15.8734 55.793 15.4204 55.793 14.7751V9.10025C55.793 8.45566 56.3489 8.00195 56.9462 8.00195C57.5434 8.00195 58.0995 8.45502 58.0995 9.10025L58.0995 14.7751Z" fill="#070738"/>
<path d="M6.27222 60.4691C4.48015 60.4691 3.03272 59.908 1.92991 58.7857C0.643304 57.4635 0 55.4956 0 52.8821C0 51.7752 0.114876 50.6067 0.344627 49.3768C0.559062 48.1469 0.880714 46.9324 1.30958 45.7332C2.28986 43.0274 3.63007 40.8443 5.33024 39.1839C7.29078 37.2929 9.55 36.3474 12.1079 36.3474C13.3792 36.3474 14.3288 36.5703 14.9568 37.0162C15.6001 37.4466 15.9218 38.0232 15.9218 38.7457V39.0916L16.4272 36.578H23.2049L19.8276 52.6284C19.6897 53.0896 19.6208 53.597 19.6208 54.1504C19.6208 55.5033 20.2641 56.1798 21.5507 56.1798C22.4084 56.1798 23.1896 55.7416 23.8942 54.8653C24.4915 54.1274 24.9816 53.0819 25.3646 51.729H27.3404C26.498 54.1274 25.4794 56.0261 24.2847 57.4251C23.2738 58.5781 22.1327 59.4083 20.8614 59.9157C19.9271 60.2846 18.9392 60.4691 17.8976 60.4691C16.5651 60.4691 15.5006 60.1078 14.7041 59.3853C13.9229 58.6473 13.4481 57.5634 13.2796 56.1337C12.3913 57.3943 11.4569 58.3783 10.4767 59.0855C9.22069 60.0079 7.81921 60.4691 6.27222 60.4691ZM9.32791 55.9031C9.6802 55.9031 10.0478 55.8108 10.4307 55.6263C10.829 55.4418 11.2119 55.1805 11.5795 54.8423C12.4066 54.0428 12.958 53.0051 13.2337 51.729L15.4853 41.0749C15.4853 40.9211 15.447 40.7443 15.3704 40.5445C15.3091 40.3292 15.2172 40.1294 15.0947 39.9449C14.7271 39.4991 14.214 39.2761 13.5553 39.2761C12.9274 39.2761 12.3147 39.4837 11.7173 39.8988C11.1353 40.3139 10.5839 40.8904 10.0631 41.6283C9.14411 42.9659 8.38593 44.7108 7.78858 46.8632C7.51288 47.8164 7.3061 48.7619 7.16825 49.6997C7.0304 50.6221 6.96147 51.46 6.96147 52.2133C6.96147 53.7815 7.25249 54.8423 7.83453 55.3957C8.03364 55.611 8.25574 55.7493 8.50081 55.8108C8.74587 55.8723 9.02158 55.9031 9.32791 55.9031Z" fill="#070738"/>
<path d="M42.3662 60.4691C40.421 60.4691 38.9812 59.9157 38.0469 58.8087C37.2351 57.8556 36.8292 56.6333 36.8292 55.142C36.8292 54.4348 36.9134 53.6123 37.0819 52.6745C37.2657 51.7367 37.5337 50.5299 37.886 49.054C38.2383 47.5473 38.4987 46.3481 38.6672 45.4565C38.851 44.5494 38.9429 43.7653 38.9429 43.1042C38.9429 41.49 38.3762 40.6828 37.2427 40.6828C36.4463 40.6828 35.711 41.1056 35.0371 41.9512C34.4704 42.6738 33.9803 43.7038 33.5667 45.0414L30.3732 60.1924H23.5955L30.4191 28.0685L37.3806 27.123L34.8533 39.0225C35.7723 37.9924 36.7602 37.2698 37.8171 36.8547C38.5983 36.5473 39.4407 36.3935 40.3444 36.3935C41.9373 36.3935 43.1933 36.8086 44.1123 37.6388C45.0926 38.5459 45.5827 39.9065 45.5827 41.7206C45.5827 42.8121 45.3836 44.2342 44.9853 45.9869C44.8781 46.4942 44.702 47.2552 44.4569 48.2699C44.0127 49.9764 43.6911 51.337 43.492 52.3517C43.3694 52.9974 43.3082 53.5201 43.3082 53.9198C43.3082 54.5501 43.446 55.0421 43.7217 55.3957C44.0127 55.7339 44.5029 55.9031 45.1921 55.9031C46.1264 55.9031 46.9153 55.5187 47.5586 54.75C48.0487 54.1658 48.5771 53.1588 49.1439 51.729H51.1197C49.9556 55.1882 48.4852 57.6096 46.7085 58.9932C45.4525 59.9772 44.0051 60.4691 42.3662 60.4691Z" fill="#070738"/>
<path d="M57.0014 34.0182C56.4959 34.0182 56.0134 33.926 55.5539 33.7415C55.0944 33.5416 54.6962 33.2726 54.3592 32.9344C54.0222 32.6115 53.7542 32.2195 53.5551 31.7583C53.3713 31.297 53.2794 30.8128 53.2794 30.3054C53.2794 29.7981 53.3713 29.3138 53.5551 28.8526C53.7542 28.3914 54.0222 27.984 54.3592 27.6304C54.6962 27.2768 55.0944 27.0077 55.5539 26.8232C56.0134 26.6234 56.4959 26.5234 57.0014 26.5234C57.5068 26.5234 57.9893 26.6234 58.4488 26.8232C58.9083 27.0077 59.3142 27.2768 59.6665 27.6304C60.0188 27.984 60.2868 28.3914 60.4706 28.8526C60.6697 29.3138 60.7693 29.7981 60.7693 30.3054C60.7693 30.8128 60.6697 31.297 60.4706 31.7583C60.2868 32.2195 60.0188 32.6115 59.6665 32.9344C59.3142 33.2726 58.9083 33.5416 58.4488 33.7415C57.9893 33.926 57.5068 34.0182 57.0014 34.0182ZM53.8078 60.4691C52.3068 60.4691 51.1197 60.0233 50.2467 59.1316C49.2664 58.1477 48.7762 56.7102 48.7762 54.8192C48.7762 53.9275 48.8988 52.8975 49.1439 51.729L52.3374 36.578H59.1151L55.7377 52.6284C55.6152 53.0281 55.5539 53.5355 55.5539 54.1504C55.5539 54.7961 55.6994 55.2497 55.9904 55.511C56.2968 55.7724 56.7869 55.9031 57.4609 55.9031C57.9204 55.9031 58.3645 55.8031 58.7934 55.6033C59.2376 55.388 59.6435 55.0959 60.0111 54.727C60.7616 53.9736 61.3283 52.9743 61.7113 51.729H63.6871C62.8447 54.112 61.7878 56.0107 60.5166 57.4251C59.4444 58.5781 58.2344 59.4083 56.8865 59.9157C55.9062 60.2846 54.88 60.4691 53.8078 60.4691Z" fill="#070738"/>
<path d="M65.3184 34.8254H72.096L71.3378 38.3768C72.9308 37.0238 74.7611 36.3474 76.8289 36.3474C78.5903 36.3474 79.9535 36.8855 80.9185 37.9617C82.0213 39.2223 82.5727 41.1671 82.5727 43.7961C82.5727 46.3328 82.251 48.7157 81.6077 50.945C80.796 53.7891 79.6166 55.9953 78.0696 57.5634C76.1703 59.5006 73.8115 60.4691 70.9932 60.4691C69.9057 60.4691 69.0097 60.3 68.3051 59.9618C67.769 59.7158 67.3325 59.3238 66.9955 58.7857L64.5602 70.2931L57.4609 71.9996L65.3184 34.8254ZM69.5458 56.3643C71.0621 56.3643 72.3641 55.5879 73.4516 54.0351C74.3093 52.8206 74.9986 51.1141 75.5193 48.9156C75.9329 47.1476 76.1397 45.395 76.1397 43.6577C76.1397 42.1049 75.8563 40.998 75.2896 40.3369C74.922 39.9372 74.4165 39.7373 73.7732 39.7373C73.2065 39.7373 72.6321 39.9372 72.0501 40.3369C71.468 40.7367 70.9626 41.3132 70.5337 42.0665L67.7537 55.2804C67.8609 55.5879 68.0601 55.8492 68.3511 56.0645C68.6574 56.2643 69.0556 56.3643 69.5458 56.3643Z" fill="#070738"/>
<path d="M89.3963 60.4691C87.6043 60.4691 86.1568 59.908 85.054 58.7857C83.7674 57.4635 83.1241 55.4956 83.1241 52.8821C83.1241 51.7752 83.239 50.6067 83.4687 49.3768C83.6832 48.1469 84.0048 46.9324 84.4337 45.7332C85.414 43.0274 86.7542 40.8443 88.4543 39.1839C90.4149 37.2929 92.6741 36.3474 95.232 36.3474C96.5033 36.3474 97.4529 36.5703 98.0809 37.0162C98.7242 37.4466 99.0459 38.0232 99.0459 38.7457V39.0916L99.5513 36.578H106.329L102.952 52.6284C102.814 53.0896 102.745 53.597 102.745 54.1504C102.745 55.5033 103.388 56.1798 104.675 56.1798C105.533 56.1798 106.314 55.7416 107.018 54.8653C107.616 54.1274 108.106 53.0819 108.489 51.729H110.465C109.622 54.1274 108.604 56.0261 107.409 57.4251C106.398 58.5781 105.257 59.4083 103.986 59.9157C103.051 60.2846 102.063 60.4691 101.022 60.4691C99.6892 60.4691 98.6247 60.1078 97.8282 59.3853C97.047 58.6473 96.5722 57.5634 96.4037 56.1337C95.5154 57.3943 94.581 58.3783 93.6008 59.0855C92.3448 60.0079 90.9433 60.4691 89.3963 60.4691ZM92.452 55.9031C92.8043 55.9031 93.1719 55.8108 93.5548 55.6263C93.9531 55.4418 94.336 55.1805 94.7036 54.8423C95.5307 54.0428 96.0821 53.0051 96.3578 51.729L98.6094 41.0749C98.6094 40.9211 98.5711 40.7443 98.4945 40.5445C98.4332 40.3292 98.3413 40.1294 98.2188 39.9449C97.8512 39.4991 97.3381 39.2761 96.6794 39.2761C96.0515 39.2761 95.4388 39.4837 94.8414 39.8988C94.2594 40.3139 93.708 40.8904 93.1872 41.6283C92.2682 42.9659 91.51 44.7108 90.9127 46.8632C90.637 47.8164 90.4302 48.7619 90.2924 49.6997C90.1545 50.6221 90.0856 51.46 90.0856 52.2133C90.0856 53.7815 90.3766 54.8423 90.9586 55.3957C91.1577 55.611 91.3798 55.7493 91.6249 55.8108C91.87 55.8723 92.1457 55.9031 92.452 55.9031Z" fill="#070738"/>
<path d="M111.705 36.578H118.483L117.886 39.5067C118.958 38.5536 119.831 37.8771 120.505 37.4774C121.546 36.8778 122.565 36.578 123.56 36.578C124.571 36.578 125.383 36.9393 125.996 37.6619C126.271 37.9847 126.478 38.3614 126.616 38.7919C126.754 39.2069 126.823 39.6528 126.823 40.1294C126.823 40.5599 126.754 40.975 126.616 41.3747C126.478 41.7744 126.271 42.1357 125.996 42.4585C125.689 42.7968 125.314 43.0658 124.87 43.2657C124.441 43.4655 123.959 43.5655 123.423 43.5655C123.009 43.5655 122.68 43.4963 122.435 43.3579C122.19 43.2195 121.998 43.0197 121.86 42.7583C121.738 42.497 121.653 42.2433 121.607 41.9973C121.47 41.3362 121.332 40.8981 121.194 40.6828C121.087 40.5291 120.918 40.4522 120.688 40.4522C120.03 40.4522 119.471 40.5906 119.011 40.8673C118.552 41.1441 117.97 41.6053 117.265 42.251L113.497 60.1924H106.72L111.705 36.578Z" fill="#070738"/>
<path d="M130.932 60.4691C129.14 60.4691 127.692 59.908 126.589 58.7857C125.303 57.4635 124.66 55.4956 124.66 52.8821C124.66 51.7752 124.774 50.6067 125.004 49.3768C125.219 48.1469 125.54 46.9324 125.969 45.7332C126.949 43.0274 128.29 40.8443 129.99 39.1839C131.95 37.2929 134.21 36.3474 136.767 36.3474C138.039 36.3474 138.988 36.5703 139.616 37.0162C140.26 37.4466 140.581 38.0232 140.581 38.7457V39.0916L141.087 36.578H147.864L144.487 52.6284C144.349 53.0896 144.28 53.597 144.28 54.1504C144.28 55.5033 144.924 56.1798 146.21 56.1798C147.068 56.1798 147.849 55.7416 148.554 54.8653C149.151 54.1274 149.641 53.0819 150.024 51.729H152C151.158 54.1274 150.139 56.0261 148.944 57.4251C147.933 58.5781 146.792 59.4083 145.521 59.9157C144.587 60.2846 143.599 60.4691 142.557 60.4691C141.225 60.4691 140.16 60.1078 139.364 59.3853C138.583 58.6473 138.108 57.5634 137.939 56.1337C137.051 57.3943 136.117 58.3783 135.136 59.0855C133.88 60.0079 132.479 60.4691 130.932 60.4691ZM133.987 55.9031C134.34 55.9031 134.707 55.8108 135.09 55.6263C135.489 55.4418 135.871 55.1805 136.239 54.8423C137.066 54.0428 137.618 53.0051 137.893 51.729L140.145 41.0749C140.145 40.9211 140.107 40.7443 140.03 40.5445C139.969 40.3292 139.877 40.1294 139.754 39.9449C139.387 39.4991 138.874 39.2761 138.215 39.2761C137.587 39.2761 136.974 39.4837 136.377 39.8988C135.795 40.3139 135.243 40.8904 134.723 41.6283C133.804 42.9659 133.046 44.7108 132.448 46.8632C132.172 47.8164 131.966 48.7619 131.828 49.6997C131.69 50.6221 131.621 51.46 131.621 52.2133C131.621 53.7815 131.912 54.8423 132.494 55.3957C132.693 55.611 132.915 55.7493 133.16 55.8108C133.405 55.8723 133.681 55.9031 133.987 55.9031Z" fill="#070738"/>
</svg>
