<svg width="1576" height="1085" viewBox="0 0 1576 1085" fill="none" xmlns="http://www.w3.org/2000/svg">
<path d="M298.218 708.017C396.43 726.553 500.591 737.705 582.556 794.941C666.473 853.549 710.46 962.16 799.06 1012.34C872.832 1054.11 956.052 1092.78 1043.3 1082.99C1140.38 1072.1 1222.73 1003.92 1279.46 924.402C1336.2 844.886 1372.72 752.985 1418.57 666.677C1445.49 616 1476.28 566.672 1515.14 524.204C1546.52 489.946 1583.71 464.619 1613.43 429.257C1676.66 354.02 1761.1 306.761 1783.65 203.197C1795.54 148.542 1794.41 91.1901 1782.31 36.7101C1759.76 -64.8889 1702.77 -155.813 1636.64 -236.05C1536.52 -357.708 1404.96 -463.971 1249.26 -487.798C1103.55 -510.066 956.889 -457.563 824.476 -392.769C720.257 -341.87 619.651 -281.785 530.144 -207.583C484.449 -169.709 441.764 -128.148 403.763 -82.5527C385.401 -60.5282 368.899 -37.457 352.548 -13.944C337.44 7.78983 319.032 19.9766 296.952 35.7333C236.916 78.5731 176.544 121.692 124.701 174.114C72.8588 226.535 29.4882 289.562 10.2201 360.741C-9.04792 431.919 -1.99381 512.227 39.2733 573.358C95.253 656.223 200.007 689.481 298.218 708.017ZM56.2172 563.136C14.95 503.261 7.26836 423.931 25.8856 353.519C36.8561 311.819 56.7401 273.666 81.4585 238.338C98.7353 213.823 117.916 190.707 138.821 169.206C156.567 150.88 175.277 133.634 194.685 117.168C230.571 86.7014 268.875 58.8161 307.19 31.1168C328.875 15.4763 347.086 3.32443 362.054 -18.0373C378.324 -41.1782 394.768 -63.8307 413.037 -85.4133C450.887 -130.009 493.398 -170.535 538.802 -207.141C627.228 -278.913 726.276 -336.3 828.834 -384.896C954.472 -444.446 1092.93 -492.856 1231.23 -477.111C1236.35 -476.529 1241.47 -475.855 1246.6 -475.087C1399.76 -452.284 1529.06 -350.662 1628.7 -232.969C1692.25 -157.929 1747.74 -72.401 1772.52 23.1512C1773.51 26.9653 1774.45 30.7989 1775.34 34.6519C1787.79 88.3876 1789.45 145.065 1778.13 199.162C1766.51 254.63 1736.94 294.295 1701.96 330.472C1672.14 361.241 1638.62 389.382 1609.39 422.989C1589.98 445.292 1567.55 463.386 1545.54 482.294C1533.64 492.574 1521.87 503.11 1510.79 514.715C1471.71 555.648 1440.16 603.092 1413.01 652.816C1367.33 736.426 1331.66 826.082 1276.06 903.68C1220.45 981.277 1139.89 1047.75 1045.12 1058.72C959.934 1068.55 878.62 1031.32 806.393 990.824C718.908 942.194 674.945 835.78 592.364 777.963C511.69 721.448 409.213 709.622 312.455 692.039C243.947 679.678 172.651 661.177 116.671 622.687C93.289 606.616 72.6729 587.033 56.2172 563.136Z" fill="#1313EE"/>
<path d="M326.692 676.015C421.986 692.644 522.789 705.156 602.174 760.904C683.406 817.965 727.532 921.89 813.681 969.288C884.501 1008.23 963.77 1044.28 1046.9 1034.41C1139.33 1023.44 1217.92 958.555 1272.5 883.016C1327.09 807.476 1361.82 719.936 1407.31 639.036C1434.7 590.312 1467.01 544.717 1506.3 505.307C1517.43 494.121 1529.23 483.98 1541.16 474.085C1563.15 455.816 1585.67 438.338 1605.19 416.686C1634.69 384.044 1668.25 356.45 1697.86 325.832C1732.63 289.864 1761.56 250.036 1772.56 195.056C1783.33 141.495 1781.11 85.5151 1768.32 32.5352C1767.41 28.7287 1766.44 24.9456 1765.43 21.1856C1740.13 -72.9711 1684.28 -156.976 1620.76 -229.852C1521.6 -343.534 1394.58 -440.539 1243.94 -462.355C1238.89 -463.076 1233.86 -463.719 1228.83 -464.285C1092.78 -479.402 956.797 -433.597 833.193 -376.989C732.32 -330.777 635.027 -275.82 547.461 -206.712C502.44 -171.233 460.046 -131.882 422.323 -88.0999C404.136 -66.9591 387.703 -44.7252 371.561 -21.968C356.698 -0.978424 338.72 11.1502 317.418 26.6743C279.753 54.176 242.251 82.0264 207.306 112.435C188.398 128.866 170.223 146.065 152.942 164.31C132.564 185.768 113.766 208.674 96.695 232.849C72.1625 267.735 52.1274 304.947 41.5521 346.403C23.5856 415.895 31.9296 494.307 73.127 552.915C89.5711 576.312 110.106 595.371 133.348 610.79C188.945 647.723 258.998 664.375 326.692 676.015ZM90.0476 542.693C48.8851 485.341 40.0761 407.906 57.2175 339.193C67.5023 298.062 87.5839 261.735 111.93 227.279C128.793 203.445 147.206 180.747 167.05 159.333C183.878 141.169 201.519 124.006 219.915 107.621C253.919 77.2471 290.631 49.478 327.656 22.0811C348.574 6.67319 366.297 -5.40894 381.114 -26.0381C397.163 -48.4115 413.549 -70.2267 431.655 -90.9256C469.122 -133.719 511.423 -171.989 556.095 -206.281C642.697 -272.762 738.34 -325.253 837.528 -369.082C959.109 -422.748 1092.61 -465.901 1226.4 -451.459C1231.36 -450.924 1236.31 -450.307 1241.26 -449.61C1389.39 -428.771 1514.18 -336.417 1612.81 -226.748C1676.32 -156.127 1732.51 -73.5525 1758.42 19.3018C1759.46 23.023 1760.45 26.7519 1761.38 30.4886C1774.52 82.7358 1777.28 137.995 1767.09 191.033C1756.63 245.536 1728.4 285.504 1693.88 321.273C1664.45 351.74 1630.88 378.788 1601.17 410.453C1581.5 431.431 1558.93 448.327 1536.92 465.91C1524.97 475.433 1513.14 485.167 1501.97 495.923C1462.46 533.809 1429.4 577.532 1401.75 625.28C1356.43 703.482 1322.61 788.859 1269.1 862.398C1215.58 935.937 1138.94 999.197 1048.77 1010.19C967.698 1020.09 890.405 985.347 821.072 947.822C736.062 901.796 691.867 800.22 611.994 743.938C533.899 688.888 434.758 675.689 340.916 660.002C274.024 649.095 205.238 634.42 150.025 598.917C126.633 584.174 106.274 565.09 90.0476 542.693Z" fill="#3EDDE8"/>
<path d="M355.152 644.002C447.576 658.491 544.997 672.62 621.802 726.937C700.327 782.452 744.58 881.679 828.44 926.309C896.296 962.439 971.614 995.86 1050.62 985.917C1138.43 974.893 1213.22 913.25 1265.67 841.723C1318.11 770.195 1351.16 686.993 1396.19 611.477C1423.7 565.069 1457.87 522.955 1497.62 486.481C1508.84 476.166 1520.7 466.817 1532.67 457.677C1554.75 440.792 1577.31 424.547 1597.09 404.185C1627 373.486 1660.58 346.973 1689.83 316.68C1724.16 281.132 1751.78 241.001 1761.6 186.986C1771.24 134.472 1767.91 79.9221 1754.45 28.4306C1753.48 24.7327 1752.47 21.0581 1751.41 17.4067C1724.89 -74.0871 1668.37 -155.173 1604.86 -223.608C1506.75 -329.3 1384.2 -417.003 1238.6 -436.853C1233.73 -437.512 1228.86 -438.097 1223.99 -438.609C1092.46 -452.412 961.422 -411.863 841.885 -361.151C744.36 -319.776 650.367 -269.773 564.741 -205.816C520.395 -172.744 478.233 -135.614 440.882 -93.658C422.857 -73.4126 406.587 -52.0044 390.573 -30.0147C375.907 -9.75769 358.406 2.33603 337.894 17.5811C301.508 44.8036 265.598 72.5728 232.524 102.888C214.643 119.231 197.513 136.414 181.135 154.438C161.823 175.805 143.79 198.295 127.131 221.791C102.97 255.828 82.7607 291.237 72.8593 332.076C56.392 399.894 65.8169 476.376 106.933 532.472C123.114 554.372 143.403 572.908 166.666 587.045C221.53 620.977 289.085 633.652 355.152 644.002ZM123.888 522.25C82.8188 467.422 72.7548 391.871 88.5713 324.913C98.1124 284.353 118.438 249.862 142.413 216.256C158.867 193.095 176.52 170.811 195.301 149.496C211.199 131.51 227.814 114.381 245.145 98.1091C277.278 67.8748 312.397 40.1057 348.144 13.0343C368.26 -2.08282 385.518 -14.1533 400.091 -34.0382C415.966 -55.6441 432.236 -76.6337 450.179 -96.4372C487.367 -137.486 529.378 -173.512 573.364 -205.42C658.002 -266.761 750.368 -314.206 846.208 -353.231C963.711 -401.002 1092.28 -438.923 1221.58 -425.771C1226.36 -425.282 1231.15 -424.724 1235.94 -424.096C1379.01 -405.235 1499.36 -322.183 1596.91 -220.479C1660.43 -154.196 1717.28 -74.6452 1744.32 15.581C1745.41 19.1859 1746.45 22.8063 1747.44 26.4421C1761.26 77.1893 1765.11 131.03 1756.05 183.021C1746.82 236.513 1719.86 276.829 1685.75 312.18C1656.7 342.31 1623.08 368.276 1592.96 397.999C1573.07 417.709 1550.4 433.338 1528.34 449.525C1516.35 458.177 1504.46 467.177 1493.18 477.062C1453.04 511.833 1418.44 552.519 1390.55 597.72C1345.8 670.538 1313.56 751.578 1262.18 821.094C1210.8 890.609 1137.89 950.59 1052.4 961.695C975.46 971.672 902.107 939.601 835.738 904.854C753.099 861.561 708.799 764.672 631.61 709.936C556.095 656.351 460.359 641.478 369.399 627.954C304.134 618.279 237.835 607.593 183.389 575.137C160.259 561.609 140.033 543.635 123.877 522.25H123.888Z" fill="#FF22F5"/>
<path d="M383.611 612C473.094 624.466 567.227 640.083 641.417 692.935C717.257 746.904 761.616 841.456 843.081 883.307C907.951 916.623 979.352 947.392 1054.22 937.368C1137.4 926.286 1208.42 867.899 1258.75 800.383C1309.08 732.868 1340.52 654.026 1384.98 583.894C1413.42 539.019 1448.65 500.97 1488.83 467.608C1500.16 458.154 1512.07 449.607 1524.08 441.223C1546.16 425.734 1568.89 410.721 1588.9 391.662C1619.23 362.904 1652.82 337.472 1681.73 307.506C1715.62 272.376 1741.92 231.92 1750.56 178.893C1759.06 127.437 1754.65 74.3058 1740.49 24.3029C1739.48 20.7096 1738.42 17.1513 1737.31 13.5929C1709.66 -75.203 1652.5 -153.324 1588.96 -217.351C1492.01 -315.124 1373.82 -393.466 1233.28 -411.339C1228.57 -411.944 1223.86 -412.475 1219.17 -412.932C1092.15 -425.433 966.046 -390.14 850.588 -345.312C756.386 -308.682 665.671 -263.772 582.067 -204.99C538.36 -174.267 496.511 -139.346 459.474 -99.1696C441.624 -79.808 425.401 -59.2369 409.619 -38.0031C395.151 -18.502 378.125 -6.51291 358.393 8.51123C323.296 35.4314 288.979 63.1656 257.776 93.3999C240.925 109.68 224.876 126.716 209.431 144.566C191.372 165.497 174.114 187.766 157.67 210.732C133.881 243.909 113.439 277.481 104.212 317.715C89.1045 383.812 99.7612 458.422 140.784 511.994C156.892 532.903 177.051 550.345 200.053 563.276C254.115 594.232 319.159 603.011 383.611 612ZM157.716 501.808C116.728 449.479 105.514 375.824 119.889 310.587C128.698 270.585 149.268 237.932 172.871 205.186C189.14 182.533 205.991 160.474 223.516 139.612C238.496 121.797 254.01 104.726 270.361 88.5624C300.577 58.3979 334.139 30.7335 368.596 3.95285C387.992 -10.9899 404.727 -22.9441 419.09 -42.0732C434.791 -62.9232 450.956 -83.0756 468.725 -101.995C505.588 -141.219 547.296 -175.034 590.678 -204.548C673.317 -260.784 762.441 -303.158 854.935 -337.393C968.358 -379.256 1092.01 -411.944 1216.75 -400.094C1221.4 -399.652 1226.02 -399.152 1230.6 -398.594C1368.63 -381.709 1484.61 -307.973 1581.01 -214.223C1644.58 -152.405 1702.04 -75.7495 1730.25 11.7207C1731.38 15.2093 1732.46 18.7211 1733.49 22.2562C1747.99 71.515 1752.96 123.937 1745.02 174.87C1736.97 227.431 1711.32 268.015 1677.62 302.947C1648.89 332.751 1615.28 357.602 1584.74 385.417C1564.61 403.837 1541.84 418.221 1519.73 433.013C1507.7 441.025 1495.75 449.177 1484.38 458.212C1443.99 490.016 1408.05 526.17 1379.32 570.091C1335.16 637.537 1304.47 714.216 1255.24 779.719C1206.01 845.223 1136.9 901.994 1056.04 913.099C983.233 923.158 913.785 893.726 850.414 861.794C770.134 821.338 725.718 729.124 651.237 675.934C578.29 623.815 485.913 607.465 397.893 595.988C334.244 587.697 270.454 580.871 216.776 551.439C193.893 539.128 173.789 522.233 157.716 501.808Z" fill="#FF8500"/>
<path d="M412.084 579.986C498.697 590.452 589.389 607.534 661.046 658.933C734.179 711.343 778.642 801.232 857.748 840.339C919.619 870.876 987.116 898.97 1057.87 888.877C1136.4 877.736 1203.64 822.594 1251.8 759.102C1299.96 695.609 1329.97 621.117 1373.73 556.345C1402.79 513.32 1439.4 479.12 1480.01 448.827C1491.44 440.222 1503.41 432.466 1515.47 424.838C1537.6 410.744 1560.42 396.929 1580.67 379.207C1611.42 352.403 1645.04 328.041 1673.64 298.411C1707.1 263.677 1732.09 222.942 1739.55 170.858C1746.91 120.459 1741.41 68.7469 1726.57 20.2324C1725.5 16.7593 1724.39 13.3018 1723.24 9.85971C1694.49 -76.2617 1636.73 -151.429 1573.12 -211.084C1477.34 -300.856 1363.49 -369.93 1227.97 -385.826C1223.43 -386.361 1218.9 -386.834 1214.37 -387.245C1091.86 -398.443 970.707 -368.395 859.305 -329.451C768.473 -297.682 680.953 -257.796 599.326 -204.118C556.246 -175.802 514.665 -143.091 478.011 -104.775C460.312 -86.2971 444.205 -66.5634 428.598 -46.0971C414.327 -27.3286 397.778 -15.4209 378.835 -0.594421C344.994 26.0467 312.292 53.6762 282.971 83.7361C267.132 99.9115 252.152 116.901 237.648 134.623C220.646 155.426 204.249 177.323 188.107 199.65C164.69 231.966 143.946 263.7 135.556 303.412C121.866 367.799 133.696 440.536 174.626 491.586C190.678 511.502 210.706 527.847 233.43 539.577C286.76 567.393 349.224 572.381 412.084 579.986ZM191.593 481.364C150.698 431.571 138.263 359.776 151.267 296.249C159.344 256.816 180.158 226 203.389 194.115C219.38 172.113 235.347 150.391 251.792 129.727C265.865 112.087 280.298 95.1438 295.627 79.0033C324.018 48.9434 355.953 21.3487 389.108 -5.1412C407.702 -19.8514 423.972 -31.7242 438.15 -50.1206C453.41 -70.1954 469.816 -89.3718 487.285 -107.554C523.822 -144.952 565.206 -176.57 607.972 -203.688C688.577 -254.854 774.505 -292.065 863.64 -321.544C972.996 -357.592 1091.67 -384.978 1211.93 -374.419C1216.38 -374.023 1220.84 -373.578 1225.28 -373.081C1358.25 -358.15 1469.93 -293.774 1565.12 -207.967C1628.8 -150.557 1686.81 -76.8664 1716.2 7.90607C1717.36 11.3016 1718.52 14.6972 1719.59 18.1276C1734.78 65.8979 1740.82 116.889 1734.04 166.764C1727.16 218.36 1702.82 259.258 1669.6 293.772C1641.22 323.25 1607.6 347.066 1576.63 372.846C1556.24 389.975 1533.39 403.081 1511.22 416.523C1499.15 423.779 1487.17 431.152 1475.66 439.304C1434.91 468.166 1397.53 500.412 1368.18 542.449C1324.76 604.604 1295.43 676.899 1248.34 738.426C1201.25 799.953 1135.91 853.386 1059.7 864.561C991.021 874.69 925.477 847.944 865.116 818.791C787.137 781.126 742.639 693.574 670.855 641.909C600.488 591.266 511.469 573.463 426.343 563.997C364.285 557.02 303.076 554.02 250.106 527.704C227.54 516.583 207.594 500.787 191.593 481.364Z" fill="#FF8500"/>
<path d="M440.544 547.985C524.217 556.474 611.586 574.998 680.674 624.92C751.111 675.795 795.632 761.032 872.425 797.279C931.276 825.059 994.879 850.456 1061.5 840.304C1135.41 829.094 1198.88 777.196 1244.89 717.728C1290.9 658.259 1319.58 588.173 1362.53 528.716C1392.22 487.609 1430.25 457.282 1471.22 429.931C1482.79 422.222 1494.79 415.233 1506.89 408.36C1529.07 395.662 1551.99 383.126 1572.48 366.649C1603.65 341.787 1637.29 318.518 1665.45 289.202C1698.45 254.886 1722.13 213.837 1728.42 162.73C1734.65 113.378 1728.05 63.0959 1712.52 16.0699C1711.41 12.6976 1710.25 9.34854 1709.03 6.01114C1679.2 -77.424 1620.92 -149.638 1557.17 -204.85C1462.67 -286.692 1353.06 -346.405 1222.62 -360.336C1218.25 -360.801 1213.89 -361.216 1209.52 -361.58C1091.52 -371.488 975.309 -346.684 867.951 -313.624C780.501 -286.588 696.166 -251.83 616.583 -203.257C574.119 -177.337 532.91 -146.823 496.535 -110.345C479.129 -92.5967 462.792 -73.83 447.61 -54.1436C433.537 -36.1193 417.464 -24.2813 399.3 -9.67584C366.761 16.6629 335.651 44.2227 308.19 74.2361C293.372 90.3301 279.473 107.238 265.865 124.786C249.944 145.357 234.418 166.904 218.578 188.58C195.533 219.977 174.591 249.932 166.886 289.086C154.556 351.752 167.619 422.617 208.467 471.143C224.441 490.078 244.329 505.321 266.76 515.82C319.346 540.624 379.3 541.764 440.544 547.985ZM182.552 281.923C189.873 243.048 210.954 214.07 233.813 183.08C249.502 161.718 264.598 140.345 279.985 119.878C293.128 102.435 306.493 85.5391 320.799 69.4916C347.318 39.5247 377.603 11.9417 409.539 -14.2343C427.284 -28.7467 443.147 -40.5149 457.116 -58.1322C472.224 -77.4421 488.501 -95.8071 505.856 -113.124C542.056 -148.696 583.102 -178.104 625.264 -202.827C703.812 -248.841 786.602 -281.064 872.344 -305.705C977.621 -335.823 1091.36 -358.034 1207.11 -348.731C1211.39 -348.397 1215.65 -348.01 1219.89 -347.568C1347.91 -334.637 1455.39 -279.61 1549.22 -201.722C1613.06 -148.719 1671.59 -77.9822 1702.04 4.10403C1703.26 7.3833 1704.42 10.6819 1705.53 14C1721.41 60.2701 1728.55 109.854 1722.89 158.671C1717.19 209.302 1694.17 250.537 1661.38 284.609C1633.36 313.762 1599.67 336.426 1568.34 360.369C1547.69 376.161 1524.76 388.115 1502.54 400.127C1490.43 406.616 1478.39 413.21 1466.78 420.489C1425.6 446.328 1386.91 474.736 1356.88 514.902C1314.44 571.719 1286.38 639.583 1241.42 697.04C1196.47 754.497 1134.92 804.779 1063.32 816.024C998.76 826.234 937.098 802.186 879.758 775.777C804.127 740.892 759.571 658.015 690.483 607.919C622.742 558.73 537.024 539.484 454.78 531.972C394.35 526.46 335.639 527.228 283.436 503.947C261.131 494.072 241.288 479.379 225.33 460.922C184.621 413.651 170.907 343.717 182.552 281.923Z" fill="#FF8500"/>
<path d="M300.112 492.086C351.931 513.843 409.352 511.157 469.016 515.971C549.795 522.495 633.782 542.461 700.279 590.917C768.008 640.246 812.61 720.844 887.103 754.276C942.885 779.312 1002.64 801.953 1065.14 791.755C1134.43 780.487 1194.14 731.821 1237.97 676.376C1281.81 620.931 1309.34 555.287 1351.31 501.11C1381.73 461.875 1421.04 435.385 1462.44 411.069C1474.06 404.208 1486.17 398.022 1498.3 391.905C1520.54 380.591 1543.52 369.253 1564.29 354.113C1595.83 331.123 1629.54 309.005 1657.37 280.015C1689.91 246.118 1712.31 204.766 1717.42 154.624C1722.51 106.33 1714.83 57.4671 1698.6 11.9295C1697.44 8.67352 1696.28 5.42914 1695 2.19638C1664.01 -78.5409 1605.22 -147.812 1541.28 -198.595C1448.15 -272.552 1342.68 -322.881 1217.29 -334.835C1213.09 -335.23 1208.89 -335.587 1204.69 -335.905C1091.21 -344.51 979.933 -324.951 876.69 -297.786C792.587 -275.587 711.401 -245.9 633.91 -202.327C592.038 -178.884 551.178 -150.557 515.129 -115.904C497.85 -99.0315 481.645 -81.0922 466.61 -62.1911C452.758 -44.8994 437.115 -33.1778 419.776 -18.77C388.48 7.20831 358.997 34.7216 333.419 64.6768C319.613 80.6894 306.783 97.5276 294.092 114.901C279.252 135.274 264.586 156.473 249.048 177.509C226.375 208.116 205.166 236.164 198.217 274.759C187.246 335.693 201.54 404.685 242.296 450.7C258.207 468.676 277.971 482.824 300.112 492.086ZM213.882 267.654C220.46 229.28 241.773 202.208 264.272 172.032C279.67 151.321 293.906 130.297 308.212 110.017C320.438 92.7366 332.768 75.9565 346.028 60.0138C370.735 30.1981 399.358 2.62665 430.003 -23.2121C446.958 -37.6083 462.368 -49.295 476.116 -66.2146C491.062 -84.733 507.195 -102.259 524.414 -118.683C560.289 -152.406 600.975 -179.663 642.556 -201.955C718.989 -242.946 798.618 -270.017 881.036 -289.867C982.246 -314.09 1091.04 -331.021 1202.28 -323.067C1206.4 -322.776 1210.51 -322.439 1214.62 -322.079C1337.45 -311.113 1440.94 -265.505 1533.33 -195.466C1597.38 -146.905 1656.35 -79.0642 1687.95 0.289307C1689.21 3.46393 1690.43 6.66177 1691.62 9.85962C1708.19 54.653 1716.43 102.807 1711.9 150.566C1707.38 200.22 1685.67 241.722 1653.33 275.422C1625.66 304.261 1591.96 325.832 1560.19 347.845C1539.28 362.334 1516.28 373.067 1494.01 383.684C1481.86 389.417 1469.76 395.22 1457.99 401.639C1416.47 424.454 1376.5 449.002 1345.71 487.306C1304.27 538.868 1277.31 602.255 1234.51 655.7C1191.71 709.145 1133.93 756.183 1066.95 767.497C1006.52 777.777 948.719 756.462 894.436 732.774C821.082 700.773 776.491 622.477 710.111 573.928C644.88 526.251 562.52 505.528 483.252 499.982C424.39 495.865 368.201 500.47 316.789 480.213C294.8 471.573 275.099 457.976 259.217 440.478C218.496 395.731 203.586 327.657 213.882 267.596V267.654Z" fill="#FF22F5"/>
<path d="M333.466 468.34C384.518 487.074 439.417 480.55 497.477 483.969C575.339 488.539 655.991 509.924 719.919 556.915C784.952 604.697 829.601 680.678 901.769 711.261C954.518 733.6 1010.42 753.531 1068.78 743.217C1133.43 731.879 1189.34 686.469 1231.06 635.071C1272.78 583.672 1299.24 522.506 1340.11 473.55C1371.3 436.175 1411.81 413.534 1453.65 392.242C1465.42 386.254 1477.56 380.87 1489.68 375.486C1511.99 365.625 1535 355.461 1556.06 341.623C1588.02 320.575 1621.73 299.539 1649.23 270.886C1681.44 237.361 1702.44 195.708 1706.38 146.53C1710.34 99.2833 1701.56 51.8387 1684.65 7.80118C1683.44 4.64597 1682.19 1.51013 1680.91 -1.60632C1648.74 -79.6575 1589.63 -146.01 1525.38 -192.339C1433.74 -258.47 1332.3 -299.345 1211.94 -309.311C1207.9 -309.652 1203.87 -309.954 1199.84 -310.218C1090.87 -317.532 984.547 -303.24 885.371 -281.937C804.615 -264.494 726.543 -239.992 651.179 -201.513C609.959 -180.442 569.412 -154.29 533.7 -121.462C516.547 -105.48 500.481 -88.3671 485.611 -70.2383C471.968 -53.6908 456.802 -42.0273 440.288 -27.8986C410.282 -2.22266 382.461 25.3255 358.684 55.083C345.9 71.0375 334.14 87.771 322.379 104.97C308.608 125.145 294.802 145.995 279.554 166.392C257.265 196.138 235.789 222.337 229.583 260.374C219.949 319.587 235.498 386.719 276.161 430.21C292.007 447.244 311.638 460.307 333.466 468.34ZM245.214 253.211C251.024 215.453 272.64 190.172 294.743 160.857C309.851 140.786 323.216 120.157 336.441 100.028C347.748 82.9219 359.009 66.2116 371.304 50.3037C394.152 20.5926 421.16 -6.909 450.538 -32.4454C466.645 -46.5044 481.567 -58.1329 495.129 -74.2618C509.911 -92.0088 525.897 -108.716 542.974 -124.265C578.581 -156.162 618.826 -181.222 659.849 -201.095C734.144 -237.074 810.67 -258.97 889.741 -274.029C986.883 -292.356 1090.79 -304.054 1197.46 -297.391C1201.41 -297.151 1205.36 -296.88 1209.29 -296.577C1327.12 -287.577 1426.61 -251.458 1517.43 -189.21C1581.78 -145.126 1641.11 -80.2273 1673.86 -3.47855C1675.16 -0.4086 1676.44 2.67297 1677.67 5.82431C1694.92 49.1292 1704.16 95.8529 1700.92 142.577C1697.43 191.254 1677.19 233.07 1645.27 266.351C1617.96 294.853 1584.23 315.343 1552.06 335.425C1530.93 348.612 1507.83 358.147 1485.49 367.322C1473.3 372.334 1461.09 377.311 1449.32 382.87C1407.26 402.638 1366.18 423.372 1334.57 459.805C1294.31 506.191 1268.33 565.02 1227.65 614.465C1186.98 663.91 1132.92 707.575 1070.6 718.948C1014.3 729.297 960.317 710.808 909.067 689.76C837.968 660.607 793.377 586.917 729.681 539.914C667.042 493.644 588.064 471.561 511.666 467.956C454.408 465.258 400.764 473.689 350.13 456.467C328.461 449.073 308.884 436.578 293.047 420.035C252.419 377.8 236.242 311.656 245.214 253.258V253.211Z" fill="#1313EE"/>
<path d="M366.819 444.594C417.104 460.304 469.481 449.967 525.949 451.955C600.883 454.595 678.188 477.375 739.536 522.89C801.885 569.113 846.452 640.524 916.447 668.247C966.105 687.911 1018.18 705.063 1072.42 694.679C1132.44 683.283 1184.56 641.106 1224.13 593.696C1263.7 546.286 1289.3 489.748 1328.91 445.92C1360.97 410.429 1402.59 391.614 1444.87 373.346C1456.74 368.229 1468.93 363.636 1481.15 359.008C1503.51 350.531 1526.66 341.565 1547.91 329.064C1580.34 309.958 1614.04 290.015 1641.17 261.653C1672.85 228.581 1692.48 186.614 1695.34 138.39C1698.08 92.1897 1688.3 46.1754 1670.7 3.62634C1669.44 0.579651 1668.15 -2.45538 1666.81 -5.46719C1633.5 -80.7623 1574 -144.254 1509.45 -186.048C1419.4 -244.423 1321.89 -275.762 1206.6 -283.728C1202.72 -283.991 1198.85 -284.236 1194.97 -284.46C1090.51 -290.472 989.126 -281.402 893.983 -266.017C816.702 -253.493 741.698 -234.143 668.496 -200.665C627.74 -182.024 587.646 -158.034 552.26 -127.021C535.243 -111.926 519.321 -95.6396 504.612 -78.2855C491.155 -62.4706 476.466 -50.8885 460.684 -36.9458C431.956 -11.549 405.75 15.9178 383.833 45.6172C372.118 61.4786 361.38 78.1772 350.538 95.1666C337.836 115.156 324.971 135.657 309.956 155.403C288.038 184.288 266.283 208.638 260.856 246.106C252.547 303.574 269.363 368.857 309.944 409.825C325.769 425.903 345.3 437.843 366.819 444.594ZM276.545 238.931C281.589 201.719 303.483 178.288 325.215 149.833C340.02 130.413 352.513 110.086 364.727 90.2012C375.117 73.2584 385.308 56.6295 396.523 40.8029C417.441 11.1966 442.903 -16.2469 470.992 -41.4926C486.379 -55.319 500.835 -66.8662 514.188 -82.3089C528.793 -99.2756 544.621 -115.148 561.545 -129.8C596.769 -159.895 636.688 -182.815 677.142 -200.234C749.252 -231.236 822.721 -247.912 898.446 -258.191C991.509 -270.634 1090.42 -277.076 1192.64 -271.715C1196.42 -271.518 1200.19 -271.308 1203.97 -271.064C1316.7 -264.087 1412.33 -237.504 1501.54 -182.966C1566.24 -143.429 1625.89 -81.3205 1659.77 -7.31616C1661.11 -4.36249 1662.44 -1.38556 1663.72 1.603C1681.66 43.4078 1691.99 88.7244 1689.82 134.39C1687.86 180.368 1669.1 224.029 1637.12 257.095C1610.16 285.259 1576.41 304.667 1543.82 322.808C1522.44 334.692 1499.24 343.053 1476.91 350.786C1464.68 355.031 1452.5 359.229 1440.53 363.927C1398.03 380.66 1355.89 397.58 1323.35 432.117C1284.46 473.41 1259.25 527.611 1220.74 573.02C1182.23 618.43 1132 658.979 1074.31 670.398C1022.13 680.864 971.962 665.084 923.861 646.746C854.994 620.5 810.414 551.391 749.426 505.912C689.286 461.107 613.643 437.629 540.232 435.954C484.554 434.675 433.432 446.932 383.554 432.721C362.203 426.596 342.731 415.205 326.923 399.592C286.342 359.88 268.887 295.527 276.545 238.931Z" fill="#FF8500"/>
<path d="M400.184 420.849C449.679 433.547 499.534 419.395 554.409 419.942C626.461 420.674 700.384 444.838 759.165 488.911C818.805 533.588 863.361 600.452 931.159 625.244C977.703 642.269 1025.98 656.642 1076.09 646.176C1131.49 634.722 1179.83 595.801 1217.25 552.403C1254.67 509.005 1279.53 457.107 1317.69 418.325C1350.73 384.754 1393.36 369.718 1436.08 354.496C1448.05 350.228 1460.31 346.437 1472.56 342.565C1494.98 335.483 1518.23 327.785 1539.72 316.54C1572.53 299.376 1606.27 280.492 1633.06 252.513C1664.31 219.79 1682.6 177.567 1684.3 130.343C1685.9 85.201 1675 40.6054 1656.74 -0.4552C1655.44 -3.40109 1654.1 -6.32375 1652.72 -9.22314C1618.27 -81.8786 1558.5 -142.568 1493.59 -179.838C1405.27 -230.573 1311.55 -252.284 1201.31 -258.319C1197.61 -258.513 1193.92 -258.699 1190.22 -258.877C1094.34 -263.253 998.264 -260.377 902.815 -250.272C828.776 -242.388 756.805 -228.341 685.811 -199.793C645.567 -183.629 605.88 -161.767 570.819 -132.556C553.956 -118.357 538.187 -102.905 523.648 -86.3323C510.388 -71.2152 496.175 -59.7494 481.184 -46.0276C453.734 -20.9332 429.12 6.46384 409.132 36.0237C398.429 51.8037 388.771 68.4093 378.835 85.2592C367.214 105.028 355.151 125.192 340.485 144.298C318.939 172.322 296.894 194.824 292.257 231.768C285.284 287.492 303.343 350.914 343.832 389.37C359.616 404.513 379.018 415.351 400.184 420.849ZM307.887 224.605C312.129 187.94 334.326 166.357 355.686 138.762C370.189 119.982 381.822 100.004 392.874 80.317C402.345 63.5602 411.468 46.9895 421.66 31.2444C440.8 1.74261 464.612 -25.5729 491.422 -50.5744C506.018 -64.1682 519.999 -75.6573 533.154 -90.3442C547.612 -106.546 563.31 -121.596 580.104 -135.358C614.968 -163.639 654.48 -184.443 694.434 -199.316C764.313 -225.41 834.784 -236.818 907.103 -242.342C996.099 -248.888 1090.07 -250.098 1187.77 -246.028C1191.38 -245.877 1194.99 -245.725 1198.59 -245.551C1306.32 -240.504 1398.13 -223.654 1485.63 -176.698C1550.71 -141.743 1610.64 -82.4251 1645.66 -11.1186C1647.06 -8.26961 1648.42 -5.39734 1649.76 -2.51343C1668.35 37.8029 1679.81 81.6892 1678.81 126.308C1677.73 173.055 1660.07 215.476 1629.04 247.932C1602.44 275.782 1568.68 294.097 1535.66 310.296C1514.05 320.889 1490.74 327.971 1468.26 334.355C1455.99 337.844 1443.7 341.239 1431.68 345.077C1388.68 358.775 1345.68 371.95 1312.08 404.534C1274.68 440.838 1250.12 490.306 1213.75 531.704C1177.39 573.102 1130.94 610.383 1077.87 621.872C1029.82 632.338 983.432 619.477 938.411 603.743C871.74 580.486 827.219 515.819 768.926 471.921C711.436 428.582 639.14 403.731 568.599 403.952C514.514 404.127 465.913 420.232 416.814 408.999C395.825 404.111 376.483 393.803 360.718 379.102C320.264 341.96 301.519 279.457 307.887 224.605Z" fill="#1313EE"/>
<path d="M433.536 397.115C482.252 406.79 529.586 388.847 582.881 387.94C651.946 386.777 722.58 412.302 778.792 454.909C835.736 498.04 880.211 560.415 945.801 582.231C989.207 596.673 1033.72 608.139 1079.7 597.592C1130.45 586.068 1175 550.403 1210.3 511.017C1245.61 471.631 1269.91 424.582 1306.49 390.731C1340.6 359.148 1384.13 347.821 1427.29 335.635C1439.37 332.227 1451.7 329.227 1463.98 326.111C1486.43 320.424 1509.79 313.971 1531.53 304.016C1564.76 288.795 1598.52 271.014 1624.96 243.338C1655.76 211.081 1672.77 168.508 1673.26 122.25C1673.73 78.1659 1661.76 34.9773 1642.79 -4.59482C1641.44 -7.42056 1640.04 -10.2347 1638.63 -13.0255C1603.04 -82.9948 1543.05 -140.94 1477.7 -173.582C1391.13 -216.793 1301.17 -228.748 1195.97 -232.818L1185.4 -233.201C1089.95 -236.62 998.457 -238.039 911.495 -234.434C840.803 -231.341 771.843 -222.596 703.079 -198.932C663.416 -185.268 624.113 -165.5 589.389 -138.138C572.665 -124.824 557.039 -110.187 542.659 -94.3676C529.597 -80.0527 515.826 -68.5986 501.648 -55.121C475.5 -30.3056 452.478 -2.99007 434.303 26.4768C424.622 42.1754 416.034 58.6996 407.028 75.375C396.475 94.9692 385.273 114.773 370.92 133.227C349.746 160.403 327.399 181.044 323.552 217.442C317.823 271.422 337.23 332.995 377.637 368.927C393.415 383.158 412.718 392.892 433.536 397.115ZM339.183 210.267C342.669 174.16 365.133 154.449 386.121 127.704C400.322 109.563 411.095 89.934 421.113 70.4445C429.654 53.8621 437.708 37.3612 446.877 21.7091C464.111 -7.71126 486.389 -34.9803 511.851 -59.6911C525.704 -73.0291 539.208 -84.4367 552.166 -98.3911C566.459 -113.828 582.007 -128.052 598.651 -140.917C633.201 -167.372 672.26 -186.047 711.726 -198.502C779.35 -219.77 846.835 -225.817 915.853 -226.515C1000.77 -227.178 1089.8 -223.131 1182.98 -220.363L1193.31 -220.061C1295.99 -216.979 1384.1 -209.967 1469.75 -170.453C1535.36 -140.196 1595.44 -83.553 1631.57 -14.9326C1633.03 -12.1883 1634.43 -9.43231 1635.81 -6.65308C1655.13 32.1632 1667.66 74.6424 1667.74 118.191C1667.84 163.985 1651.47 206.708 1620.9 238.757C1594.65 266.27 1560.88 283.504 1527.43 297.76C1505.59 307.063 1482.11 312.877 1459.69 317.889C1447.36 320.634 1435.03 323.227 1422.9 326.204C1379.52 336.867 1335.58 346.379 1300.88 376.928C1265.17 408.325 1241.06 452.967 1206.85 490.353C1172.64 527.739 1129.96 561.776 1081.51 573.3C1037.6 583.882 994.959 573.87 953.134 560.706C888.625 540.403 844.197 480.236 788.6 437.885C733.678 396.034 664.718 369.799 597.175 371.939C544.67 373.567 498.592 393.417 450.27 385.242C429.64 381.653 410.388 372.475 394.604 358.706C354.186 324.041 334.127 263.386 339.183 210.267Z" fill="#FF22F5"/>
<path d="M466.889 373.369C514.815 380.056 559.639 358.31 611.342 355.926C677.478 352.891 744.777 379.753 798.444 420.907C852.692 462.491 897.074 520.459 960.503 539.216C1000.76 551.124 1041.51 559.671 1083.37 549.054C1129.5 537.425 1170.29 505.04 1203.42 469.677C1236.55 434.315 1260.48 392.208 1295.31 363.136C1330.64 333.646 1374.94 325.925 1418.5 316.784C1430.68 314.226 1443.04 312.005 1455.39 309.668C1477.88 305.33 1501.36 300.156 1523.33 291.492C1557.03 278.224 1590.74 261.514 1616.84 234.163C1647.2 202.324 1662.9 159.45 1662.22 114.145C1661.56 71.1188 1648.48 29.3605 1628.83 -8.7231C1627.42 -11.4442 1625.98 -14.1575 1624.52 -16.8631C1587.81 -84.0996 1527.68 -139.463 1461.8 -167.325C1377.09 -203.165 1290.79 -205.223 1190.65 -207.305L1180.56 -207.526C1089.64 -209.642 1003.08 -216.282 920.247 -218.608C852.843 -220.294 786.869 -216.921 720.361 -198.071C681.139 -186.943 642.336 -169.244 607.937 -143.696C591.362 -131.282 575.88 -117.471 561.661 -102.415C548.819 -88.8325 535.583 -77.4481 522.125 -64.2031C497.232 -39.6784 475.826 -12.4442 459.533 16.918C450.864 32.57 443.345 48.9896 435.256 65.4906C425.773 84.8871 415.5 104.342 401.392 122.157C380.59 148.472 357.94 167.264 354.907 203.103C350.456 255.351 371.176 315.075 411.491 348.461C427.266 361.783 446.459 370.412 466.889 373.369ZM370.561 195.94C373.21 160.368 396.023 142.449 416.639 116.622C430.584 99.1786 440.439 79.8519 449.388 60.5484C457.011 44.1405 463.996 27.7093 472.154 12.1502C487.505 -17.1771 508.18 -44.3648 532.375 -68.7499C545.414 -81.8786 558.43 -93.17 571.19 -106.438C585.33 -121.12 600.734 -134.529 617.222 -146.51C651.47 -171.128 690.041 -187.827 729.019 -197.676C794.377 -214.119 858.898 -214.77 924.547 -210.677C1005.4 -205.444 1089.49 -196.164 1178.16 -194.688L1187.98 -194.56C1285.6 -193.455 1370.11 -196.42 1453.85 -164.209C1520 -138.766 1580.2 -84.6578 1617.52 -18.7469C1619.01 -16.1073 1620.46 -13.4559 1621.9 -10.7814C1641.9 26.5464 1655.61 67.5954 1656.77 110.156C1658.13 154.973 1643 197.998 1612.85 229.64C1586.95 256.827 1553.18 272.991 1519.3 285.294C1497.22 293.306 1473.69 297.853 1451.16 301.505C1438.8 303.458 1426.4 305.284 1414.17 307.412C1370.35 315.017 1325.71 321.017 1289.73 349.391C1255.83 376.137 1232.07 415.674 1199.99 449.071C1167.92 482.469 1129.03 513.226 1085.21 524.843C1045.42 535.495 1006.52 528.436 967.836 517.773C905.453 500.574 861.141 444.769 808.253 403.964C755.899 363.543 690.273 336.03 625.601 340.007C574.688 343.123 531.132 366.753 483.589 361.578C463.354 359.257 444.207 351.187 428.411 338.321C388.109 306.109 366.726 247.315 370.561 195.94Z" fill="#F7BA23"/>
<path d="M500.243 349.624C547.391 353.31 589.727 327.785 639.815 323.924C703.023 319.052 766.974 347.182 818.038 386.905C869.59 426.931 913.821 480.597 975.146 496.214C1012.21 505.645 1049.24 511.203 1086.98 500.516C1128.48 488.888 1165.48 459.688 1196.47 428.338C1227.47 396.987 1251.09 359.996 1284.07 335.541C1320.74 308.319 1365.68 304.005 1409.72 297.923C1422.01 296.225 1434.43 294.795 1446.82 293.272C1469.36 290.318 1492.94 286.387 1515.15 279.015C1549.24 267.7 1583.02 252.071 1608.75 225.047C1638.67 193.649 1653.14 150.426 1651.19 106.098C1649.49 64.1301 1635.23 23.7789 1614.89 -12.8047C1613.44 -15.4173 1611.95 -18.0143 1610.43 -20.5959C1572.57 -85.1695 1512.34 -138.045 1445.9 -161.034C1363.11 -189.664 1280.41 -181.64 1185.32 -181.757C1182.13 -181.757 1178.95 -181.757 1175.75 -181.757C1089.33 -182.582 1007.72 -194.548 928.905 -202.688C864.919 -209.177 801.873 -211.27 737.677 -197.13C698.932 -188.606 660.582 -172.907 626.508 -149.196C610.098 -137.694 594.761 -124.73 580.686 -110.462C568.03 -97.6702 555.247 -86.3091 542.556 -73.2501C518.988 -49.0045 499.139 -21.8634 484.717 7.41743C477.07 22.9416 470.62 39.3379 463.462 55.6528C455.048 74.8517 445.577 93.9574 431.829 111.133C411.398 136.588 388.412 153.531 386.18 188.823C382.973 239.326 405.03 297.202 445.263 328.099C461.098 340.489 480.21 347.971 500.243 349.624ZM401.939 181.614C403.763 146.588 426.913 130.576 447.157 105.551C460.754 88.7013 469.795 69.7699 477.663 50.6642C484.38 34.3841 490.284 18.1041 497.419 2.59155C510.9 -26.6311 529.959 -53.7374 552.887 -77.8434C565.09 -90.693 577.629 -102.008 590.203 -114.485C604.199 -128.402 619.466 -140.977 635.805 -152.045C669.239 -174.294 706.844 -189.51 746.335 -196.769C809.392 -208.584 870.962 -203.746 933.263 -194.839C1010.03 -183.722 1089.17 -169.186 1173.34 -169.012C1176.43 -169.012 1179.53 -169.012 1182.63 -169.012C1275.2 -169.872 1356.11 -182.966 1437.94 -157.906C1504.68 -137.486 1564.96 -85.7741 1603.39 -22.5495C1604.94 -20.0299 1606.45 -17.4872 1607.91 -14.9211C1628.6 20.9298 1643.4 60.5601 1645.67 102.004C1648.22 145.856 1634.4 189.219 1604.69 220.407C1579.13 247.269 1545.37 262.432 1511.05 272.735C1488.74 279.503 1465.1 282.771 1442.48 285.027C1430.07 286.19 1417.61 287.248 1405.3 288.515C1361.03 293.074 1315.81 295.772 1278.44 321.762C1246.47 343.984 1222.91 378.346 1192.98 407.697C1163.04 437.047 1127.9 464.596 1088.77 476.306C1053.1 487.027 1017.88 483.004 982.444 474.759C922.177 460.805 878.016 409.22 827.812 369.962C778.05 331.006 715.76 302.191 654.016 307.982C604.695 312.633 563.649 340.007 516.885 337.809C496.861 336.879 478.29 329.739 462.183 317.889C422.032 288.19 399.301 231.233 401.939 181.614Z" fill="#FF8500"/>
<path d="M533.596 325.89C579.965 326.587 619.756 297.295 668.275 291.911C728.566 285.224 789.136 314.68 837.655 352.903C886.464 391.382 930.625 440.873 989.824 453.199C1023.69 460.246 1057.02 462.735 1090.61 451.978C1127.49 440.268 1160.71 414.325 1189.56 386.998C1218.4 359.671 1241.85 327.971 1272.86 307.923C1311.02 283.236 1356.45 281.98 1400.95 279.038C1413.31 278.177 1425.81 277.573 1438.24 276.712C1460.83 275.154 1484.53 272.503 1506.96 266.374C1541.49 257.072 1575.27 242.454 1600.64 215.755C1630.12 184.742 1643.29 141.251 1640.15 97.8878C1637.28 56.99 1621.96 18.1156 1600.94 -16.9795C1599.43 -19.4912 1597.91 -21.9798 1596.29 -24.4566C1557.35 -86.3324 1497.02 -136.917 1430.01 -154.825C1349.14 -176.442 1270.05 -158.139 1179.99 -156.302C1176.97 -156.24 1173.95 -156.197 1170.93 -156.174C1089.01 -155.697 1012.35 -172.861 937.609 -186.908C876.981 -198.199 816.888 -205.816 754.969 -196.339C715.82 -190.407 678.367 -176.26 645.067 -154.825C628.831 -144.201 613.654 -132.04 599.744 -118.509C587.24 -106.403 574.933 -95.1585 563.067 -82.3787C540.789 -58.4238 522.451 -31.3873 510.016 -2.1879C503.357 13.2433 498.023 29.5814 491.771 45.7219C484.45 64.7346 475.78 83.4916 462.369 100.016C442.322 124.61 418.999 139.704 417.592 174.439C415.617 223.186 439.034 279.212 479.185 307.598C495.222 318.959 513.712 325.61 533.596 325.89ZM433.211 167.276C434.199 132.808 457.721 118.622 477.558 94.4806C490.864 78.282 499.034 59.6878 505.844 40.7798C511.655 24.7207 516.431 8.41737 522.591 -6.89748C534.13 -36.0504 551.644 -63.0403 573.294 -86.8673C584.788 -99.5774 596.85 -110.799 609.192 -122.532C623.051 -135.687 638.178 -147.435 654.352 -157.604C687.518 -178.234 724.812 -191.311 763.592 -195.909C824.395 -203.13 883.059 -192.676 941.956 -178.989C1014.66 -161.988 1088.86 -142.208 1168.57 -143.336C1171.51 -143.382 1174.44 -143.452 1177.38 -143.545C1264.9 -146.394 1342.22 -169.884 1422.12 -151.685C1489.41 -136.37 1549.78 -86.8789 1589.35 -26.3405C1590.9 -23.9217 1592.45 -21.4875 1594 -19.0377C1615.39 15.3132 1631.28 53.5247 1634.68 93.9224C1638.4 136.797 1625.9 180.439 1596.63 211.255C1571.43 237.791 1537.65 251.862 1502.91 260.2C1480.36 265.677 1456.62 267.712 1434 268.561C1421.54 269.003 1409.03 269.212 1396.6 269.654C1351.88 271.061 1306.27 270.817 1267.3 294.155C1237.36 312.052 1213.93 341.018 1186.14 366.345C1158.36 391.673 1126.99 415.965 1092.44 427.709C1060.9 438.501 1029.42 437.582 997.145 431.698C938.946 421.07 894.959 373.555 847.463 335.902C800.269 298.411 741.326 268.328 682.499 275.91C634.794 282.061 596.258 313.226 550.272 313.982C530.516 314.319 512.12 308.168 496.048 297.353C455.954 270.27 431.852 215.139 433.211 167.276Z" fill="#FF1F5A"/>
<path d="M566.96 302.144C612.562 299.819 649.843 266.84 696.758 259.909C754.133 251.432 811.391 282.143 857.295 318.901C903.443 355.834 947.336 401.325 1004.5 410.197C1035.17 414.942 1064.79 414.267 1094.26 403.429C1126.5 391.661 1155.95 368.974 1182.66 345.659C1209.36 322.343 1232.74 296.179 1261.68 280.341C1301.48 258.572 1347.26 260.107 1392.19 260.212C1404.67 260.212 1417.21 260.398 1429.69 260.328C1452.33 260.165 1476.12 258.758 1498.79 253.921C1533.73 246.56 1567.54 232.989 1592.56 206.65C1621.61 176.044 1633.44 132.227 1629.13 89.8644C1625.17 50.0016 1608.73 12.4994 1587.01 -21.1072C1585.46 -23.5182 1583.88 -25.9021 1582.28 -28.2588C1542.11 -87.4483 1481.68 -135.916 1414.15 -148.568C1335.13 -163.371 1259.69 -134.614 1174.69 -130.8C1171.85 -130.672 1169 -130.567 1166.14 -130.509C1088.76 -128.73 1016.97 -151.161 946.302 -171.07C889.032 -187.152 831.914 -200.443 772.262 -195.49C733.851 -192.233 696.695 -180.224 663.638 -160.383C647.548 -150.665 632.49 -139.33 618.698 -126.555C606.473 -115.194 594.654 -103.984 583.532 -91.4718C562.602 -67.7495 545.81 -40.8409 535.199 -11.7346C529.552 3.60356 525.287 19.8719 519.952 35.838C513.688 54.6531 506.007 73.0495 492.793 88.9458C473.119 112.691 449.434 125.925 448.877 160.113C448.11 207.127 472.909 261.282 512.968 287.167C529.029 297.516 547.332 303.121 566.96 302.144ZM464.554 152.95C464.682 119.029 488.552 106.726 508.041 83.4106C521.045 67.8515 528.355 49.6179 534.084 30.8958C538.942 15.0228 542.672 -1.15254 547.809 -16.5139C557.477 -45.5854 573.48 -72.4358 593.771 -96.0186C604.534 -108.23 616.033 -119.772 628.204 -130.579C641.929 -142.965 656.913 -153.878 672.912 -163.139C705.869 -182.201 742.889 -193.135 780.908 -195.036C839.444 -197.792 895.064 -181.628 950.66 -163.15C1019.3 -140.265 1088.55 -115.241 1163.69 -117.671C1166.47 -117.756 1169.24 -117.88 1172 -118.043C1254.51 -122.857 1328.11 -156.906 1406.17 -145.452C1473.99 -135.486 1534.49 -88.0065 1575.2 -30.1659C1576.83 -27.8402 1578.43 -25.5145 1580.01 -23.1887C1602.09 9.67368 1619.06 46.4665 1623.59 85.8061C1628.49 127.669 1617.3 171.66 1588.48 202.092C1563.64 228.303 1529.83 241.292 1494.67 247.688C1471.87 251.874 1448.04 252.665 1425.37 252.13C1412.87 251.816 1400.3 251.234 1387.77 250.804C1342.62 249.176 1296.73 246.432 1256.06 266.573C1228.16 280.387 1204.83 303.703 1179.18 325.018C1153.53 346.333 1126 367.392 1096.08 379.184C1068.66 390.068 1040.89 392.347 1011.83 388.708C955.704 381.672 911.891 338.077 867.091 301.923C822.477 265.875 766.904 234.582 710.983 243.932C664.87 251.641 628.844 286.609 583.625 290.295C564.16 291.946 545.926 286.806 529.889 276.969C489.877 252.351 464.379 199.103 464.542 152.95H464.554Z" fill="#F7BA23"/>
<path d="M600.302 278.399C645.137 273.201 679.908 236.397 725.207 227.896C779.688 217.674 833.576 249.595 876.911 284.876C920.247 320.157 964.071 362.02 1019.17 367.16C1046.03 369.87 1073.14 365.638 1097.9 354.869C1125.5 343.042 1151.17 323.599 1175.76 304.307C1200.35 285.016 1223.56 264.596 1250.48 252.723C1292.06 234.396 1338.06 238.187 1383.41 241.327C1396 242.188 1408.6 243.164 1421.11 243.862C1443.81 245.095 1467.69 244.92 1490.61 241.374C1525.98 235.955 1559.79 223.5 1584.46 197.464C1613.07 167.23 1623.6 123.169 1618.16 81.7478C1613.07 42.9316 1595.52 6.84808 1573.12 -25.2352C1571.53 -27.5609 1569.9 -29.8053 1568.25 -32.0612C1526.88 -88.5529 1466.28 -135.114 1398.22 -142.324C1321.05 -150.464 1249.28 -111.089 1169.34 -105.286C1166.65 -105.1 1163.97 -104.938 1161.28 -104.833C1088.38 -101.751 1021.61 -129.393 955.006 -155.231C901.084 -176.163 846.929 -195.152 789.554 -194.606C751.952 -194.07 715.068 -184.221 682.197 -165.941C666.279 -157.114 651.363 -146.587 637.711 -134.544C625.646 -124.049 614.381 -112.668 604.009 -100.495C584.393 -77.122 569.157 -50.2948 560.418 -21.2815C555.769 -6.03641 552.597 10.1157 548.192 25.9539C542.998 44.5596 536.118 62.6421 523.265 77.8755C503.962 100.761 479.894 112.145 480.266 145.787C480.696 191.068 506.89 243.385 546.856 266.724C562.835 276.073 580.976 280.69 600.302 278.399ZM495.873 138.623C495.071 105.261 519.383 94.7951 538.5 72.3403C551.202 57.4208 557.664 39.5477 562.312 21.0117C566.263 5.3131 568.936 -10.8506 573.039 -26.0608C580.848 -55.016 595.247 -81.8083 614.248 -105.135C624.234 -117.245 635.266 -128.452 647.217 -138.626C660.807 -150.274 675.654 -160.369 691.483 -168.72C724.406 -186.047 761.222 -195.257 798.224 -194.187C854.564 -192.547 907.138 -170.593 959.388 -147.324C1023.92 -118.531 1088.23 -88.2622 1158.87 -91.995C1161.47 -92.119 1164.07 -92.3012 1166.66 -92.5415C1244.09 -99.321 1313.95 -144.126 1390.27 -139.195C1458.56 -134.788 1519.27 -89.1111 1561.1 -33.9683C1562.76 -31.7666 1564.41 -29.5455 1566.04 -27.3051C1588.8 4.09212 1606.88 39.4314 1612.53 77.7244C1618.62 118.657 1608.74 162.915 1580.35 192.847C1555.86 218.733 1522.03 230.652 1486.46 235.094C1463.43 237.99 1439.49 237.548 1416.73 235.617C1404.19 234.548 1391.56 233.164 1378.93 231.885C1333.35 227.233 1287.27 222.582 1244.78 238.862C1218.82 248.862 1195.71 266.27 1172.21 283.562C1148.71 300.854 1124.94 318.669 1099.66 330.53C1076.41 341.484 1052.33 347.089 1026.44 345.589C972.415 342.438 928.766 302.412 886.662 267.805C844.558 233.199 792.436 200.813 739.385 211.802C694.911 221.186 661.372 259.735 616.92 266.456C597.734 269.375 579.732 265.294 563.66 256.433C523.799 234.42 496.815 183.033 495.873 138.623Z" fill="#FF1F5A"/>
<path d="M633.655 254.676C677.723 246.478 710.007 206.022 753.679 195.917C805.266 183.975 855.772 217.081 896.528 250.92C937.284 284.76 980.898 323.146 1033.84 324.18C1110.87 325.715 1166 249.095 1239.24 225.163C1294.64 207.069 1354.6 220.767 1412.5 227.489C1470.4 234.21 1536.27 230.721 1576.36 188.359C1604.52 158.578 1613.73 114.18 1607.06 73.7239C1600.39 33.268 1579.48 -3.64113 1554.09 -35.8291C1511.64 -89.6695 1450.79 -134.509 1382.32 -136.044C1304.28 -137.823 1234.36 -84.111 1156.45 -79.134C1032.78 -71.2381 930.485 -185.245 806.847 -193.745C707.578 -200.571 608.657 -127.753 585.647 -30.8404C577.791 2.21967 576.931 39.8382 553.735 66.8398C534.804 88.8643 510.342 98.3997 511.539 131.495C513.758 192.475 567.123 267.049 633.655 254.676ZM537.198 119.703C536.338 88.3061 559.36 79.1428 577.373 58.2811C599.453 32.6982 600.685 -2.73412 608.483 -33.8406C612.81 -51.0213 619.568 -67.495 628.553 -82.7621C666.903 -147.998 743.057 -191.489 819.479 -185.861C937.481 -176.919 1035.37 -68.7961 1153.42 -75.2733C1227.79 -79.3433 1294.71 -129.218 1369.33 -127.346C1405.35 -126.346 1439.36 -113.834 1469.67 -94.3093C1495.6 -77.6222 1518.89 -55.7605 1538.23 -31.6893C1541.07 -28.1542 1543.84 -24.5493 1546.54 -20.8747C1567.66 7.84792 1583.55 40.7568 1588.55 75.3752C1594.07 113.691 1585.55 155.484 1558.79 183.521C1520.68 223.477 1458.31 226.768 1403.49 220.465C1348.68 214.162 1291.93 201.487 1239.38 217.942C1206.01 228.407 1176.51 249.176 1146.73 268.503C1113.58 290.074 1080.13 309.424 1040.98 308.401C1024.47 307.97 1008.88 303.865 994.007 297.423C962.885 283.934 934.867 260.212 908.079 238.478C868.497 206.313 819.758 174.823 770.042 185.521C743.906 191.149 721.895 207.72 698.804 221.221C684.695 229.489 670.169 236.582 654.073 239.315C629.971 243.408 607.658 235.826 589.087 221.686C558.384 198.185 538.174 156.345 537.175 119.68L537.198 119.703Z" fill="#3EDDE8"/>
<path d="M674.527 223.966C689.983 221.64 704.01 215.175 717.63 207.686C739.955 195.371 761.268 180.184 786.428 175.207C834.296 165.73 881.234 195.615 919.654 226.105C945.663 246.735 972.822 269.131 1002.89 282.051C1017.17 288.403 1032.53 292.008 1048.15 292.679C1085.82 293.923 1118.18 276.143 1150.19 256.456C1178.97 238.85 1207.41 220.407 1239.53 210.779C1289.23 195.941 1342.67 207.604 1394.48 213.535C1446.28 219.466 1505.11 216.337 1541.19 178.835C1566.56 152.485 1574.41 113.297 1570.02 77.1316C1565.94 43.6413 1551.26 11.0114 1530.5 -16.9553C1527.85 -20.5292 1525.14 -24.0178 1522.37 -27.4211C1503.29 -51.0099 1480.42 -71.2567 1454.7 -87.3316C1424.85 -105.809 1391.57 -117.543 1356.39 -118.601C1285.21 -120.775 1221.24 -74.5518 1150.44 -71.4004C1038.04 -66.3536 944.57 -168.836 832.193 -177.976C759.873 -183.791 687.682 -143.521 650.831 -82.622C642.17 -68.387 635.588 -52.9861 631.284 -36.8867C623.533 -7.7455 621.987 25.5472 600.964 49.7114C583.869 69.4102 562.289 78.2945 562.8 107.854C563.404 143.182 582.556 183.556 612.121 206.325C629.948 220.105 651.377 227.501 674.527 223.966ZM588.425 96.1095C588.239 68.259 608.402 59.712 624.579 41.1644C644.451 18.4072 646.403 -12.7807 654.12 -39.9102C658.391 -54.9316 664.781 -69.2667 673.097 -82.4825C708.496 -139.044 776.678 -176.139 844.895 -170.092C951.624 -160.627 1040.68 -63.9465 1147.44 -67.5165C1214.74 -69.7608 1275.67 -112.217 1343.44 -109.879C1377.74 -108.717 1410.33 -97.8671 1439.66 -80.5521C1465.05 -65.4624 1487.66 -46.1085 1506.48 -23.3394C1509.25 -20.0137 1511.93 -16.6104 1514.54 -13.1295C1534.9 14.0814 1548.35 46.4554 1551.5 78.7945C1554.81 112.773 1547.6 149.38 1523.61 174.033C1489.5 209.093 1434.23 212.07 1385.45 206.511C1336.66 200.953 1286.5 190.289 1239.67 203.511C1208.79 212.233 1181.41 228.361 1153.67 244.304C1122.79 262.038 1091.53 278.318 1055.34 276.864C1040.33 276.114 1025.57 272.63 1011.8 266.585C982.746 254.305 956.494 233.141 931.264 213.64C894.018 184.824 848.858 156.543 802.837 164.8C778.665 169.125 758.049 182.928 736.503 194.057C723.359 200.871 709.844 206.674 695.004 208.628C672.83 211.581 652.272 204.325 635.189 191.034C606.81 168.997 588.646 130.088 588.425 96.1095Z" fill="#FF8500"/>
<path d="M715.388 193.278C729.6 191.72 742.616 186.568 755.283 180.486C776.051 170.544 795.958 158.125 819.2 154.438C863.361 147.461 906.732 174.102 942.816 201.232C967.221 219.605 992.706 239.49 1020.68 251.235C1033.94 256.963 1048.1 260.32 1062.52 261.154C1097.24 262.84 1127.41 248.107 1157.15 232.292C1183.93 218.035 1210.23 204.232 1239.89 196.371C1283.84 184.742 1330.79 194.406 1376.53 199.592C1422.27 204.779 1474.01 201.918 1506.15 169.358C1528.71 146.415 1535.31 112.378 1533.07 80.5851C1530.85 49.374 1518.59 17.2907 1498.61 -9.17599C1496.06 -12.5599 1493.41 -15.8624 1490.7 -19.0836C1472.1 -41.0719 1449.71 -59.5572 1424.61 -73.6682C1395.79 -89.8784 1363.91 -99.8558 1330.48 -101.158C1266.14 -103.658 1208.21 -64.97 1144.44 -63.6443C1043.32 -61.4698 958.656 -152.417 857.493 -162.208C793.39 -168.406 729.217 -134.579 695.271 -82.3431C687.304 -70.1437 681.106 -56.8751 676.863 -42.9338C669.228 -17.7114 666.904 11.2671 648.193 32.5706C632.935 50.0135 614.19 58.1535 614.05 84.2946C613.876 116.924 631.017 154.369 658.153 175.684C674.516 188.557 694.179 195.662 715.388 193.278ZM639.675 72.5498C640.128 48.2111 657.456 40.2921 671.819 24.0585C689.461 4.12712 692.133 -22.7 699.711 -45.9572C703.92 -58.8203 709.925 -71.0232 717.549 -82.2036C750.089 -130.102 810.217 -160.685 870.218 -154.301C965.698 -144.184 1045.95 -59.0278 1141.44 -59.7604C1201.66 -60.1906 1256.6 -95.088 1317.5 -92.4251C1349.74 -90.8852 1381.22 -82.1228 1409.63 -66.784C1434.33 -53.6822 1456.4 -36.1178 1474.71 -14.9787C1477.38 -11.8777 1479.98 -8.67984 1482.5 -5.38507C1501.7 19.9361 1512.83 50.4645 1514.43 82.2131C1515.67 111.773 1509.62 143.287 1488.46 164.509C1458.31 194.743 1410.11 197.371 1367.4 192.557C1324.69 187.743 1280.95 179.01 1239.9 189.068C1211.48 196.045 1186.27 207.546 1160.47 220.105C1131.88 234.059 1102.79 247.188 1069.55 245.293C1055.75 244.384 1042.21 241.161 1029.49 235.757C1002.61 224.663 978.028 206.046 954.356 188.801C919.492 163.346 877.853 138.275 835.552 144.066C813.32 147.101 794.11 158.136 774.11 166.893C761.919 172.265 749.415 176.765 735.818 177.928C715.574 179.742 696.794 172.777 681.198 160.392C655.282 139.81 639.094 103.842 639.675 72.5498Z" fill="#9D2CFF"/>
<path d="M756.248 162.589C769.217 161.775 781.222 157.938 792.924 153.286C812.169 145.739 830.659 136.064 851.914 133.739C892.356 129.18 932.159 152.647 965.907 176.439C988.801 192.545 1012.53 209.894 1038.34 220.383C1050.57 225.499 1063.54 228.613 1076.75 229.605C1108.52 231.721 1136.53 220.093 1163.98 208.092C1188.79 197.242 1212.88 188.044 1240.11 181.939C1278.24 173.381 1318.79 181.183 1358.45 185.625C1398.11 190.068 1442.79 187.567 1470.94 159.798C1490.7 140.286 1496.26 111.284 1495.98 83.9684C1495.51 53.0823 1485.21 23.1506 1466.56 -1.4669C1464.1 -4.65314 1461.55 -7.75409 1458.92 -10.7698C1440.83 -31.1071 1419 -47.7749 1394.62 -59.8657C1366.59 -74.0269 1335.9 -82.1516 1304.54 -83.7159C1247.06 -86.5184 1195.12 -55.4119 1138.42 -55.9003C1048.59 -56.5981 972.74 -135.975 882.885 -146.441C826.986 -152.953 770.844 -125.579 739.792 -82.053C732.521 -71.8935 726.715 -60.7604 722.546 -48.9813C715.004 -27.6894 711.959 -3.01352 695.433 15.5108C681.988 30.628 666.043 38.175 665.299 60.7693C664.312 90.7246 679.454 125.215 704.184 145.077C719.071 156.996 736.968 163.787 756.248 162.589ZM690.924 48.9895C691.959 28.1627 706.52 20.8716 719.048 6.95219C734.469 -10.1651 737.921 -32.6548 745.37 -52.0048C749.51 -62.7004 755.119 -72.7668 762.035 -81.9135C791.623 -121.16 843.767 -145.208 895.563 -138.545C979.794 -127.719 1051.22 -54.1444 1135.43 -52.0048C1188.58 -50.6093 1237.51 -77.9016 1291.57 -74.9712C1322.06 -73.418 1351.95 -65.9621 1379.6 -53.0164C1403.22 -41.946 1425.41 -26.2707 1443.05 -6.62999C1445.65 -3.73836 1448.15 -0.74205 1450.57 2.3589C1469.42 26.558 1478.16 57.5831 1477.46 85.6196C1476.85 110.679 1471.76 137.181 1453.38 154.984C1427.21 180.323 1386.09 182.66 1349.44 178.602C1312.8 174.543 1275.45 167.613 1240.2 174.683C1215.36 179.654 1190.99 186.77 1167.37 195.952C1141.09 206.045 1114.16 216.127 1083.86 213.79C1071.25 212.726 1058.87 209.733 1047.16 204.917C1022.41 195.033 999.516 178.951 977.435 163.973C944.896 141.879 906.836 120.005 868.253 123.331C847.963 125.075 830.159 133.343 811.716 139.727C800.49 143.658 788.985 146.821 776.643 147.24C758.339 147.867 741.314 141.228 727.171 129.797C703.661 110.621 689.507 77.6191 690.924 48.9895Z" fill="#3EDDE8"/>
<path d="M797.121 131.89C808.823 131.89 819.829 129.355 830.567 126.146C848.243 120.948 865.349 114.052 884.664 112.971C921.387 110.866 957.622 131.111 989.034 151.554C1010.37 165.404 1032.38 180.219 1056.07 189.499C1067.27 194.008 1079.06 196.879 1091.08 198.022C1119.91 200.581 1145.77 192.057 1170.9 183.859C1193.75 176.416 1215.57 171.788 1240.43 167.462C1272.66 161.857 1306.88 167.939 1340.46 171.625C1374.05 175.312 1411.65 173.137 1435.85 150.229C1452.82 134.135 1457.55 110.11 1458.99 87.3297C1460.7 60.2816 1453.07 29.6867 1434.58 6.23186C1432.21 3.23169 1429.75 0.340042 1427.19 -2.44307C1409.83 -21.3977 1387.81 -36.0381 1364.59 -46.1317C1337.66 -57.9463 1308.58 -64.4351 1278.59 -66.2492C1227.98 -69.3075 1182.03 -45.8177 1132.41 -48.1318C1053.89 -51.7018 986.849 -119.473 908.232 -130.66C860.584 -137.451 812.414 -116.706 784.267 -81.8198C777.708 -73.6834 772.296 -64.6841 768.184 -55.0741C760.792 -37.6312 756.969 -17.3509 742.617 -1.58255C730.996 11.2089 717.794 18.1861 716.504 37.2221C714.656 64.526 727.835 96.0395 750.206 114.436C763.64 125.46 779.77 131.949 797.121 131.89ZM742.175 25.4307C743.709 8.11569 755.586 1.46414 766.278 -10.1412C779.479 -24.4444 783.71 -42.6199 790.996 -58.051C795.079 -66.5771 800.298 -74.5102 806.511 -81.6338C833.24 -112.205 877.331 -129.683 920.91 -122.776C993.904 -111.205 1056.5 -49.2598 1129.43 -44.2479C1175.51 -41.0267 1218.47 -60.6907 1265.66 -57.5161C1294.71 -55.5625 1323.13 -49.9691 1349.58 -39.2476C1372.42 -30.0493 1394.26 -16.4904 1411.35 1.7316C1413.86 4.40617 1416.28 7.19704 1418.6 10.1042C1436.69 32.8032 1443.25 62.9329 1440.46 89.0391C1438.28 109.517 1433.84 131.088 1418.27 145.461C1396.06 165.939 1362.01 167.962 1331.43 164.648C1300.86 161.334 1269.84 156.055 1240.55 160.253C1216.86 163.66 1196.22 166.067 1174.31 171.777C1150.34 178.056 1125.5 185.021 1098.2 182.242C1086.8 181.031 1075.6 178.293 1064.92 174.102C1042.29 165.416 1021.14 151.88 1000.59 139.158C970.37 120.39 935.89 101.749 901.026 102.621C882.676 103.063 866.267 108.575 849.381 112.587C839.12 115.076 828.626 116.924 817.539 116.576C801.165 116.052 785.906 109.703 773.227 99.1327C752.088 81.4107 739.874 51.4206 742.175 25.4307Z" fill="#1313EE"/>
<path d="M837.981 101.179C848.44 101.923 858.434 100.713 868.196 98.9575C884.303 96.1318 900.015 91.9804 917.389 92.2129C950.393 92.5734 983.061 109.656 1012.14 126.692C1031.89 138.32 1052.21 150.554 1073.73 158.647C1083.89 162.534 1094.49 165.159 1105.29 166.462C1131.17 169.45 1154.89 164.054 1177.71 159.659C1198.62 155.624 1218.05 155.484 1240.62 153.019C1266.88 150.158 1294.84 154.705 1322.34 157.67C1349.85 160.636 1380.45 158.752 1400.62 140.704C1414.8 128.041 1419.04 108.912 1421.87 90.7012C1425.8 65.5137 1420.24 35.8724 1402.53 13.9525C1400.27 11.1462 1397.89 8.45609 1395.41 5.88229C1378.59 -11.5606 1356.93 -24.1195 1334.49 -32.3874C1308.6 -41.981 1280.93 -46.6789 1252.67 -48.8302C1208.92 -52.0862 1169 -36.2714 1126.41 -40.4111C1059.13 -46.8185 1000.96 -102.915 933.589 -114.892C894.076 -121.869 853.995 -107.741 828.753 -81.4949C822.889 -75.3844 817.866 -68.517 813.82 -61.0751C806.533 -47.6092 801.978 -31.585 789.892 -18.6889C780.118 -8.22319 769.555 -1.89723 767.811 13.6386C765.034 38.3261 776.318 66.8394 796.272 83.7822C807.958 93.8941 822.576 99.9913 837.981 101.179ZM793.425 1.83554C795.365 -11.9327 804.651 -17.9331 813.506 -27.2359C824.488 -38.725 829.404 -52.5746 836.632 -64.0869C840.643 -70.4588 845.472 -76.2762 850.996 -81.3903C874.785 -103.264 910.951 -114.113 946.256 -106.973C1008.01 -94.5655 1061.77 -44.3416 1123.41 -36.4574C1162.42 -31.3873 1199.39 -43.3997 1239.72 -40.0623C1267.1 -37.7947 1294.06 -34.0038 1319.54 -25.48C1341.62 -18.154 1363.08 -6.67659 1379.61 10.0918C1382.05 12.5571 1384.38 15.1425 1386.59 17.8481C1403.91 39.0354 1408.57 68.165 1403.41 92.4572C1400.03 108.307 1395.88 125.017 1383.11 135.948C1364.87 151.554 1337.88 153.263 1313.38 150.693C1288.89 148.123 1264.04 144.239 1240.81 145.832C1219.37 147.309 1201.15 145.274 1181.19 147.588C1159.56 150.1 1136.9 153.926 1112.5 150.716C1102.3 149.334 1092.28 146.83 1082.63 143.251C1062.13 135.762 1042.7 124.761 1023.7 114.296C995.809 98.8878 964.896 83.4566 933.763 81.8635C917.365 81.0146 902.386 83.759 887.011 85.3521C877.518 86.5924 867.915 86.7484 858.388 85.8172C843.885 84.0706 830.246 77.9921 819.247 68.3743C800.548 52.2455 790.147 25.2323 793.425 1.8588V1.83554Z" fill="#FF22F5"/>
<path d="M878.84 70.5144C887.78 71.8546 896.832 72.2909 905.859 71.8168C920.421 71.3516 934.726 70.0027 950.159 71.5028C979.433 74.3169 1008.57 88.1433 1035.3 101.888C1053.52 111.191 1072.09 120.948 1091.53 127.832C1100.66 131.088 1110.08 133.456 1119.67 134.902C1142.6 138.39 1164.2 136.065 1184.67 135.448C1203.65 134.867 1220.69 139.007 1240.98 138.577C1261.27 138.146 1282.97 141.472 1304.4 143.67C1325.83 145.868 1349.32 144.321 1365.57 131.134C1376.94 121.831 1381.12 107.668 1384.92 94.1204C1391.48 70.7469 1387.57 42.1173 1370.62 21.6743C1368.44 19.0617 1366.15 16.5771 1363.76 14.2203C1347.49 -1.81549 1326.19 -12.258 1304.49 -18.6421C1279.48 -26.0611 1253.23 -28.945 1226.71 -31.4335C1189.81 -34.8291 1155.82 -26.7821 1120.36 -32.7127C1064.36 -42.0155 1015.02 -86.3321 958.899 -99.2166C927.637 -106.38 895.539 -98.8794 873.192 -81.3086C868.02 -77.2164 863.393 -72.4801 859.421 -67.2147C852.262 -57.5746 847.032 -45.8762 837.119 -35.7942C829.182 -27.6542 821.14 -21.933 819.06 -9.92062C815.213 12.1737 824.731 37.652 842.302 53.1412C852.611 62.2483 865.273 68.2688 878.84 70.5144ZM844.708 -21.7004C846.904 -31.9568 853.738 -37.3757 860.757 -44.3413C869.519 -53.0162 875.156 -62.5516 882.291 -70.1451C886.224 -74.3202 890.658 -77.9917 895.493 -81.076C916.411 -94.3209 944.477 -98.4375 971.624 -91.2394C1022.1 -77.8432 1067.03 -39.527 1117.4 -28.7357C1149.35 -21.8632 1180.31 -26.0378 1213.78 -22.6074C1239.44 -19.9794 1264.99 -18.0374 1289.51 -11.7114C1310.79 -6.25761 1331.91 3.13828 1347.9 18.4415C1350.26 20.7056 1352.51 23.0928 1354.63 25.5931C1371.2 45.2803 1374.56 73.468 1366.41 95.8647C1362.32 107.144 1357.98 118.889 1348 126.425C1333.73 137.169 1313.81 138.565 1295.39 136.739C1276.97 134.914 1258.2 132.088 1241.12 131.413C1221.86 130.692 1206.13 124.564 1188.12 123.413C1168.81 122.169 1148.28 122.82 1126.81 119.18C1117.83 117.643 1108.99 115.38 1100.38 112.412C1081.99 106.133 1064.28 97.6671 1046.84 89.4689C1021.27 77.3985 993.937 65.1885 966.511 61.1301C952.065 58.9904 938.457 58.9556 924.674 58.2346C916.153 57.9391 907.673 56.912 899.328 55.1646C886.704 52.4111 875.007 46.4384 865.371 37.8264C848.938 23.0697 840.222 -0.954971 844.708 -21.7004Z" fill="#F7BA23"/>
<path d="M919.713 39.8265C927.515 41.9921 935.461 43.6047 943.49 44.6523C956.506 46.5594 969.405 47.9781 982.886 50.769C1008.45 56.0483 1034.02 66.6536 1058.42 77.0496C1075.08 84.1198 1091.94 91.3062 1109.27 96.9926C1117.36 99.6549 1125.62 101.799 1133.99 103.412C1153.97 107.272 1173.44 108.226 1191.58 111.319C1208.62 114.226 1223.13 122.169 1241.27 124.204C1255.36 125.773 1271.05 128.32 1286.4 129.762C1301.75 131.204 1318.16 129.983 1330.46 121.622C1339.03 115.808 1343.63 106.621 1347.89 97.5392C1357.93 76.2704 1354.86 48.3618 1338.59 29.4305C1336.52 27.0266 1334.31 24.74 1331.99 22.5812C1316.28 8.01062 1295.34 -0.350342 1274.45 -4.86224C1250.41 -10.0951 1225.55 -11.0719 1200.77 -13.9209C1170.71 -17.4095 1142.76 -17.1071 1114.35 -24.8983C1069.63 -37.0851 1029.07 -69.3893 984.188 -83.3901C961.119 -90.5882 937.063 -89.8789 917.621 -80.9714C913.169 -78.8702 908.979 -76.2512 905.14 -73.1686C898.039 -67.5404 892.054 -60.1562 884.396 -52.9C878.295 -47.0857 872.623 -41.9923 870.357 -33.4802C865.174 -14.0837 873.205 8.47575 888.37 22.4998C897.336 30.6261 908.065 36.5575 919.713 39.8265ZM895.936 -45.26C898.26 -52.0511 902.781 -56.7955 907.964 -61.447C914.507 -67.2613 920.84 -72.5406 927.906 -76.192C931.734 -78.1939 935.777 -79.7544 939.957 -80.8435C957.947 -85.367 977.947 -82.5529 996.948 -75.4594C1036.09 -60.7609 1072.31 -34.6082 1111.39 -20.9213C1136.26 -12.2231 1161.21 -8.52524 1187.85 -5.0948C1211.76 -2.01323 1235.93 -2.01323 1259.48 2.11492C1279.98 5.6849 1300.73 13.0109 1316.18 26.8606C1318.47 28.907 1320.63 31.0894 1322.65 33.3958C1338.46 51.5713 1341.8 79.573 1329.4 99.3416C1325 106.319 1320.1 112.854 1312.88 116.959C1302.58 122.843 1289.72 123.936 1277.37 122.843C1265.28 121.631 1253.27 119.689 1241.41 117.029C1224.46 113.412 1211.07 103.923 1195.01 99.2602C1178.03 94.3297 1159.63 91.7598 1141.12 87.6316C1133.31 85.8989 1125.61 83.9221 1118.11 81.5731C1101.84 76.4798 1085.85 70.5608 1069.99 64.6186C1046.74 55.8972 1022.98 46.9083 999.272 40.3962C986.768 36.9077 974.565 34.1517 962.328 31.0934C954.815 29.2868 947.408 27.0623 940.143 24.4302C929.462 20.6936 919.661 14.8044 911.346 7.12685C897.365 -6.11812 889.858 -27.2822 895.936 -45.26Z" fill="#FF22F5"/>
<path d="M934.355 -8.12994C947.138 4.44057 964.361 11.2317 981.154 17.453C1029.19 35.3842 1077.8 51.61 1126.98 66.1302C1150.46 73.1074 1175.93 77.4798 1198.46 87.0617C1213.57 93.4923 1226.04 104.039 1241.55 109.703C1263.91 117.843 1293.48 120.843 1310.88 100.923C1326.21 83.3987 1322.09 54.5714 1306.65 37.1518C1291.22 19.7322 1267.54 11.9643 1244.48 8.94083C1221.42 5.9174 1197.94 6.94071 1174.9 3.58005C1115.27 -5.1414 1064.23 -42.0273 1009.65 -67.5753C994.657 -74.5525 978.76 -80.9017 962.211 -80.6458C945.662 -80.39 928.277 -72.1802 921.536 -57.0398C914.308 -40.69 921.583 -20.7121 934.355 -8.12994ZM946.034 -45.9229C950.683 -57.0398 961.885 -64.1449 973.855 -66.6683C976.758 -67.2815 979.71 -67.6318 982.676 -67.7149C997.679 -68.0986 1012.19 -62.6099 1025.86 -56.3653C1075.13 -33.7361 1120.85 -0.24575 1174.4 8.04543C1176.29 8.33615 1178.16 8.59198 1180.04 8.82455C1198.91 11.1503 1218.09 10.72 1236.98 13.1736C1248.29 14.4935 1259.35 17.4022 1269.84 21.8137C1278.65 25.5431 1286.61 31.0492 1293.21 37.9891C1307.39 53.2807 1311.33 78.2472 1299.08 94.4924C1294.14 101.292 1287.1 106.274 1279.04 108.668C1271.75 110.618 1264.14 110.991 1256.69 109.761C1249.3 108.526 1242.08 106.426 1235.18 103.505C1221.41 97.9577 1210.02 88.7479 1196.53 82.8173C1192.7 81.1428 1188.77 79.6078 1184.79 78.1658C1167.77 72.0608 1149.67 68.1653 1132.5 63.0487L1117.17 58.3972C1089.92 50.1642 1062.76 41.687 1035.82 32.5934C1024.12 28.6474 1012.45 24.5735 1000.82 20.3717C985.651 14.8714 970.125 8.84781 958.457 -2.2575C946.789 -13.3628 939.747 -31.0499 946.034 -45.9229Z" fill="#FF8500"/>
<path d="M1020.47 23.3834C1030.86 27.0115 1041.28 30.5001 1051.74 33.8491C1075.81 41.5356 1100.07 48.6407 1124.36 55.9435C1128.93 57.3156 1133.47 58.6955 1138.01 60.0832C1153.25 64.7347 1169.14 68.5837 1184.17 74.3748C1187.65 75.7121 1191.14 77.1307 1194.52 78.6773C1206.44 84.0846 1216.72 92.0153 1228.74 97.3994C1235.18 100.477 1241.97 102.75 1248.95 104.167C1256.11 105.411 1263.69 105.225 1270.22 102.888C1277.78 100.167 1283.14 94.7481 1287.25 88.0616C1296.44 73.2003 1292.66 52.013 1279.74 38.8378C1273.73 32.8377 1266.59 28.0942 1258.73 24.8835C1249.36 21.1044 1239.52 18.605 1229.49 17.4528C1212.7 15.2899 1195.66 15.5457 1178.92 13.3014C1177.25 13.0805 1175.59 12.8363 1173.93 12.5572C1126.45 4.68462 1086.07 -25.4102 1042.1 -45.109C1029.75 -50.5977 1016.63 -55.2724 1003.16 -54.7375C1000.5 -54.633 997.853 -54.2905 995.25 -53.7142C984.524 -51.3885 974.483 -44.8299 970.52 -34.7712C965.198 -21.4099 971.903 -5.87414 982.525 3.80085C993.147 13.4758 1006.92 18.6157 1020.47 23.3834ZM994.995 -23.6891C998.283 -32.678 1007.16 -38.597 1016.63 -40.8181C1018.92 -41.3575 1021.26 -41.6998 1023.61 -41.8414C1035.54 -42.5158 1047.29 -38.6668 1058.3 -33.9223C1096.99 -17.2469 1132.02 9.53374 1173.42 16.9993C1174.87 17.2551 1176.32 17.4993 1177.77 17.7086C1192.38 19.8716 1207.27 19.7902 1221.93 21.6507C1230.73 22.6474 1239.37 24.7534 1247.64 27.9185C1254.51 30.5934 1260.82 34.5383 1266.24 39.5471C1277.86 50.5943 1281.59 68.2 1275.38 81.5031C1272.41 87.8988 1268.41 93.9108 1261.37 96.9691C1255.32 99.6088 1247.98 99.8298 1241.19 98.4576C1234.4 97.0854 1228.21 94.0504 1222.4 91.0967C1212.09 85.9336 1202.96 79.2355 1192.61 74.3399C1189.66 72.9445 1186.66 71.6304 1183.64 70.3745C1170.59 64.8975 1156.91 61.1531 1143.57 56.9319C1139.64 55.6915 1135.65 54.4744 1131.63 53.2805C1110.31 46.9545 1088.93 41.2216 1067.71 34.9306C1058.5 32.1979 1049.31 29.3605 1040.17 26.3254C1028.23 22.3717 1016.1 17.8947 1006.65 9.7198C997.203 1.5449 990.672 -11.8396 994.995 -23.6891Z" fill="#FF22F5"/>
<path d="M1059.79 29.279C1067.69 31.721 1075.65 33.9305 1083.61 36.0701C1101.93 40.9425 1120.42 45.373 1138.76 50.6757C1142.25 51.699 1145.66 52.7572 1149.03 53.8619C1160.5 57.6179 1171.93 61.3158 1182.99 66.444C1185.54 67.6069 1188.08 68.7697 1190.58 70.0721C1199.35 74.4329 1207.29 79.9913 1215.94 84.8986C1221.42 88.0034 1227.12 91.306 1233.52 92.8177C1239.92 94.3294 1247.05 94.0619 1252.6 91.1199C1259.03 87.7127 1261.8 81.2589 1263.61 75.0143C1266.98 63.4555 1263.22 49.257 1252.82 40.3378C1247.99 36.3025 1242.48 33.1532 1236.55 31.035C1229.41 28.5002 1222 26.8027 1214.47 25.9765C1201.86 24.4183 1189.13 24.3136 1176.66 22.2321C1175.41 22.0228 1174.18 21.8019 1172.94 21.5577C1137.62 14.5107 1107.86 -8.886 1074.53 -22.631C1064.85 -26.6196 1054.5 -29.6082 1044.09 -28.829C1042.04 -28.665 1039.99 -28.3266 1037.99 -27.8174C1029.77 -25.7475 1022.01 -20.4332 1019.4 -12.5025C1016.05 -2.17631 1022.16 8.96389 1030.62 15.7434C1039.09 22.5228 1049.47 26.0928 1059.79 29.279ZM1043.95 -1.45533C1045.83 -8.32783 1052.43 -13.0839 1059.42 -14.9678C1061.13 -15.4346 1062.86 -15.7651 1064.62 -15.9562C1073.47 -16.9214 1082.43 -14.7119 1090.8 -11.4908C1118.88 -0.676214 1143.26 19.3133 1172.5 25.9416C1173.52 26.1742 1174.55 26.3951 1175.58 26.5928C1185.91 28.593 1196.5 28.9186 1206.95 30.0814C1213.22 30.7502 1219.4 32.0476 1225.4 33.9537C1230.39 35.5612 1235.1 37.9516 1239.34 41.0355C1243.55 44.1881 1246.9 48.3532 1249.07 53.1446C1251.24 57.936 1252.17 63.1985 1251.77 68.4442C1251.23 74.6306 1249.63 81.4449 1243.77 85.1893C1238.7 88.4337 1231.8 88.736 1225.78 87.0848C1219.76 85.4335 1214.57 81.8984 1209.51 78.5959C1202.54 74.0724 1195.8 69.6303 1188.59 65.8045C1186.54 64.6416 1184.47 63.6183 1182.39 62.5136C1173.42 57.8685 1164.09 53.945 1154.5 50.7803C1151.71 49.8268 1148.85 48.9197 1145.92 48.0825C1130.56 43.6752 1114.95 40.6751 1099.43 37.1981C1092.73 35.6864 1086 34.0816 1079.34 32.2211C1070.65 29.8023 1061.91 26.8835 1054.68 21.6274C1047.45 16.3713 1041.56 7.34751 1043.95 -1.45533Z" fill="#FF1F5A"/>
<path d="M1099.11 35.1755C1104.53 36.4314 1110.01 37.4314 1115.47 38.3385C1128.06 40.4084 1140.78 42.0363 1153.17 45.49C1155.56 46.149 1157.85 46.8894 1160.05 47.7111C1167.68 50.5289 1174.97 54.1749 1181.81 58.5838C1183.41 59.6071 1185.03 60.5723 1186.64 61.5375C1192.36 64.8254 1197.86 68.4603 1203.13 72.4219C1207.78 75.9802 1212.43 79.7014 1218.09 81.4805C1223.75 83.2597 1230.4 82.9109 1234.99 79.3758C1240.29 75.2941 1240.99 68.1193 1239.97 61.991C1239.21 57.8192 1237.56 53.861 1235.13 50.3884C1232.7 46.9157 1229.55 44.0109 1225.89 41.8735C1222.27 39.7624 1218.39 38.1434 1214.35 37.0593C1209.48 35.7886 1204.51 34.8906 1199.51 34.3731C1191.09 33.4196 1182.64 32.966 1174.45 31.0473C1173.63 30.8496 1172.81 30.652 1172 30.431C1148.84 24.2213 1129.77 7.66222 1107.01 -0.256849C1099.97 -2.71048 1092.41 -4.11754 1085.07 -3.01282C1083.62 -2.79125 1082.19 -2.46085 1080.78 -2.02439C1075.04 -0.256845 1069.56 3.85967 1068.41 9.67397C1066.97 16.9535 1072.53 23.7097 1078.87 27.5936C1084.99 31.4078 1092.03 33.5242 1099.11 35.1755ZM1092.92 20.7793C1093.33 16.0232 1097.7 12.5113 1102.21 10.8833C1108.93 8.45297 1116.43 8.96463 1123.28 10.9531C1141.32 16.186 1155.44 30.024 1173.37 35.4778C1183.04 38.4082 1193.36 38.2571 1203.3 40.1293C1213.23 42.0015 1223.56 46.525 1228.21 55.4906C1231.16 61.3049 1230.98 69.0845 1226.24 73.5266C1222.13 77.3524 1215.7 77.7361 1210.42 75.8523C1205.14 73.9685 1200.82 70.131 1196.79 66.2238C1191.94 61.5724 1186.33 58.8746 1181.28 54.6883C1174.77 49.2926 1168.77 45.1412 1160.44 42.9318C1151.01 40.4316 1141.18 40.1758 1131.45 39.5013C1121.73 38.8269 1111.85 37.6756 1103.02 33.5707C1097.73 31.0938 1092.41 26.5354 1092.92 20.7793Z" fill="#E8E2D0"/>
</svg>
